STARTFONT 2.1
COMMENT
COMMENT Converted from OpenType font "karma1.otf" by "otf2bdf 3.0".
COMMENT
FONT -FreeType-Karma Suture-Medium-R-Normal--25-180-100-100-P-118-ISO10646-1
SIZE 18 100 100
FONTBOUNDINGBOX 37 31 -12 -5
STARTPROPERTIES 19
FOUNDRY "FreeType"
FAMILY_NAME "Karma Suture"
WEIGHT_NAME "Medium"
SLANT "R"
SETWIDTH_NAME "Normal"
ADD_STYLE_NAME ""
PIXEL_SIZE 25
POINT_SIZE 180
RESOLUTION_X 100
RESOLUTION_Y 100
SPACING "P"
AVERAGE_WIDTH 118
CHARSET_REGISTRY "ISO10646"
CHARSET_ENCODING "1"
FONT_ASCENT 25
FONT_DESCENT 4
COPYRIGHT "Released in 2022 under CC0 license. No rights reserved."
_OTF_FONTFILE "karma1.otf"
_OTF_PSNAME "KarmaSuture-Regular"
ENDPROPERTIES
CHARS 443
STARTCHAR 0017
ENCODING 23
SWIDTH 280 0
DWIDTH 7 0
BBX 0 0 0 0
BITMAP
ENDCHAR
STARTCHAR 0020
ENCODING 32
SWIDTH 280 0
DWIDTH 7 0
BBX 0 0 0 0
BITMAP
ENDCHAR
STARTCHAR 0021
ENCODING 33
SWIDTH 280 0
DWIDTH 7 0
BBX 5 22 1 0
BITMAP
70
70
70
F8
F8
F8
F8
F8
F8
F8
F8
70
70
70
70
70
00
00
00
70
70
70
ENDCHAR
STARTCHAR 0022
ENCODING 34
SWIDTH 400 0
DWIDTH 10 0
BBX 8 8 1 14
BITMAP
E7
E7
E7
E7
E7
E7
E7
E7
ENDCHAR
STARTCHAR 0023
ENCODING 35
SWIDTH 600 0
DWIDTH 15 0
BBX 14 19 0 2
BITMAP
0630
0630
0630
0630
0630
7FFC
7FFC
0C60
0C60
0C60
39C0
39C0
39C0
FFE0
FFE0
7380
7380
7380
7380
ENDCHAR
STARTCHAR 0024
ENCODING 36
SWIDTH 480 0
DWIDTH 12 0
BBX 10 22 1 0
BITMAP
0C00
0C00
0C00
7F80
7F80
FFC0
EC00
EC00
EC00
FF80
FF80
7FC0
7FC0
0CC0
0CC0
0CC0
FFC0
7F80
7F80
0C00
0C00
0C00
ENDCHAR
STARTCHAR 0025
ENCODING 37
SWIDTH 600 0
DWIDTH 15 0
BBX 14 19 1 0
BITMAP
0004
0004
781C
783C
783C
7878
00E0
00E0
03C0
03C0
0780
0F00
0F00
1C00
7878
7878
F078
E078
E078
ENDCHAR
STARTCHAR 0026
ENCODING 38
SWIDTH 560 0
DWIDTH 14 0
BBX 11 21 1 0
BITMAP
0F00
0F00
1B80
1B80
7380
7380
7380
7700
1C00
1C00
7C00
7C00
FC00
E760
E760
E7C0
E380
E380
F7C0
7C60
7C60
ENDCHAR
STARTCHAR 0027
ENCODING 39
SWIDTH 200 0
DWIDTH 5 0
BBX 3 8 1 14
BITMAP
E0
E0
E0
E0
E0
E0
E0
E0
ENDCHAR
STARTCHAR 0028
ENCODING 40
SWIDTH 400 0
DWIDTH 10 0
BBX 8 22 1 0
BITMAP
0F
18
18
78
78
70
F0
F0
F0
F0
F0
F0
F0
F0
F0
F0
70
78
78
18
0F
0F
ENDCHAR
STARTCHAR 0029
ENCODING 41
SWIDTH 400 0
DWIDTH 10 0
BBX 8 23 1 0
BITMAP
F0
F0
18
18
1C
1C
0C
0F
0F
0F
0F
0F
0F
0F
0F
0F
0F
0C
1C
1C
18
F0
F0
ENDCHAR
STARTCHAR 002A
ENCODING 42
SWIDTH 480 0
DWIDTH 12 0
BBX 10 14 1 3
BITMAP
ECC0
ECC0
ECC0
7F80
1F00
1F00
FFC0
FFC0
1F00
7F80
7F80
ECC0
ECC0
ECC0
ENDCHAR
STARTCHAR 002B
ENCODING 43
SWIDTH 480 0
DWIDTH 12 0
BBX 10 13 1 3
BITMAP
0C00
0C00
0C00
0C00
0C00
FFC0
FFC0
FFC0
0C00
0C00
0C00
0C00
0C00
ENDCHAR
STARTCHAR 002C
ENCODING 44
SWIDTH 240 0
DWIDTH 6 0
BBX 4 8 1 -3
BITMAP
F0
F0
F0
F0
F0
70
70
E0
ENDCHAR
STARTCHAR 002D
ENCODING 45
SWIDTH 480 0
DWIDTH 12 0
BBX 10 3 1 8
BITMAP
FFC0
FFC0
FFC0
ENDCHAR
STARTCHAR 002E
ENCODING 46
SWIDTH 240 0
DWIDTH 6 0
BBX 4 5 1 0
BITMAP
F0
F0
F0
F0
F0
ENDCHAR
STARTCHAR 002F
ENCODING 47
SWIDTH 560 0
DWIDTH 14 0
BBX 14 19 0 2
BITMAP
000C
000C
001C
001C
003C
0070
0070
01E0
03C0
03C0
0780
0780
0E00
3C00
3C00
7800
F000
F000
C000
ENDCHAR
STARTCHAR 0030
ENCODING 48
SWIDTH 640 0
DWIDTH 16 0
BBX 14 22 1 0
BITMAP
0FC0
7FF8
7FF8
7038
7038
E03C
E07C
E07C
E0DC
E39C
E39C
E71C
E71C
EC1C
F81C
F81C
F01C
7038
7038
7FF8
0FC0
0FC0
ENDCHAR
STARTCHAR 0031
ENCODING 49
SWIDTH 480 0
DWIDTH 12 0
BBX 10 22 1 0
BITMAP
0C00
1C00
1C00
FC00
FC00
FC00
0C00
0C00
0C00
0C00
0C00
0C00
0C00
0C00
0C00
0C00
0C00
0C00
0C00
FFC0
FFC0
FFC0
ENDCHAR
STARTCHAR 0032
ENCODING 50
SWIDTH 640 0
DWIDTH 16 0
BBX 14 22 1 0
BITMAP
1FE0
7FF8
7FF8
F03C
F03C
E01C
E03C
E03C
0078
00E0
00E0
03C0
03C0
0780
0F00
0F00
1C00
7800
7800
FFFC
FFFC
FFFC
ENDCHAR
STARTCHAR 0033
ENCODING 51
SWIDTH 640 0
DWIDTH 16 0
BBX 14 22 1 0
BITMAP
1FE0
7FF8
7FF8
F03C
F03C
E01C
001C
001C
003C
0FF8
0FF8
0FE0
0FE0
0038
001C
001C
E01C
F03C
F03C
7FF8
1FE0
1FE0
ENDCHAR
STARTCHAR 0034
ENCODING 52
SWIDTH 640 0
DWIDTH 16 0
BBX 14 22 1 0
BITMAP
00E0
03E0
03E0
07E0
07E0
0F60
1C60
1C60
7860
F060
F060
E060
E060
FFFC
FFFC
FFFC
0060
0060
0060
0060
0060
0060
ENDCHAR
STARTCHAR 0035
ENCODING 53
SWIDTH 640 0
DWIDTH 16 0
BBX 14 22 1 0
BITMAP
FFFC
FFFC
FFFC
E000
E000
E000
E000
E000
FFE0
7FF8
7FF8
003C
003C
001C
001C
001C
E01C
F03C
F03C
7FF8
1FE0
1FE0
ENDCHAR
STARTCHAR 0036
ENCODING 54
SWIDTH 640 0
DWIDTH 16 0
BBX 14 22 1 0
BITMAP
03E0
07E0
07E0
0F00
0F00
1C00
7800
7800
7000
FFE0
FFE0
FFF8
FFF8
F03C
E01C
E01C
E01C
F03C
F03C
7FF8
1FE0
1FE0
ENDCHAR
STARTCHAR 0037
ENCODING 55
SWIDTH 640 0
DWIDTH 16 0
BBX 14 22 1 0
BITMAP
FFFC
FFFC
FFFC
0038
0038
0038
0060
0060
0060
00C0
00C0
00C0
00C0
0380
0380
0380
0700
0700
0700
0C00
0C00
0C00
ENDCHAR
STARTCHAR 0038
ENCODING 56
SWIDTH 640 0
DWIDTH 16 0
BBX 14 22 1 0
BITMAP
0FC0
1FE0
1FE0
7878
7878
7038
7038
7038
7878
1FE0
1FE0
7FF8
7FF8
F03C
E01C
E01C
E01C
F03C
F03C
7FF8
1FE0
1FE0
ENDCHAR
STARTCHAR 0039
ENCODING 57
SWIDTH 640 0
DWIDTH 16 0
BBX 14 22 1 0
BITMAP
1FE0
7FF8
7FF8
F03C
F03C
E01C
E01C
E01C
F03C
7FFC
7FFC
1FFC
1FFC
0038
0078
0078
00E0
03C0
03C0
1F80
1F00
1F00
ENDCHAR
STARTCHAR 003A
ENCODING 58
SWIDTH 240 0
DWIDTH 6 0
BBX 4 15 1 1
BITMAP
F0
F0
F0
F0
F0
00
00
00
00
00
F0
F0
F0
F0
F0
ENDCHAR
STARTCHAR 003B
ENCODING 59
SWIDTH 240 0
DWIDTH 6 0
BBX 4 19 1 -3
BITMAP
F0
F0
F0
F0
F0
00
00
00
00
00
F0
F0
F0
F0
70
70
70
70
E0
ENDCHAR
STARTCHAR 003C
ENCODING 60
SWIDTH 480 0
DWIDTH 12 0
BBX 10 22 1 0
BITMAP
00C0
03C0
03C0
0780
0780
0F00
1C00
1C00
7800
F000
F000
F000
F000
7800
1C00
1C00
0F00
0780
0780
03C0
00C0
00C0
ENDCHAR
STARTCHAR 003D
ENCODING 61
SWIDTH 560 0
DWIDTH 14 0
BBX 11 9 1 5
BITMAP
FFE0
FFE0
FFE0
0000
0000
0000
FFE0
FFE0
FFE0
ENDCHAR
STARTCHAR 003E
ENCODING 62
SWIDTH 480 0
DWIDTH 12 0
BBX 10 22 1 0
BITMAP
E000
F000
F000
7800
7800
1C00
0F00
0F00
0780
03C0
03C0
03C0
03C0
0780
0F00
0F00
1C00
7800
7800
F000
E000
E000
ENDCHAR
STARTCHAR 003F
ENCODING 63
SWIDTH 600 0
DWIDTH 15 0
BBX 13 22 1 0
BITMAP
1FC0
7FE0
7FE0
F078
F078
E038
E078
E078
00E0
03C0
03C0
0780
0780
0700
0700
0700
0700
0000
0000
0700
0700
0700
ENDCHAR
STARTCHAR 0040
ENCODING 64
SWIDTH 640 0
DWIDTH 16 0
BBX 14 22 1 0
BITMAP
1FE0
7FF8
7FF8
7038
7038
E7DC
EFDC
EFDC
ECDC
ECDC
ECDC
ECDC
ECDC
ECDC
EFF8
EFF8
E7E0
F000
F000
7FE0
0FE0
0FE0
ENDCHAR
STARTCHAR 0041
ENCODING 65
SWIDTH 600 0
DWIDTH 15 0
BBX 13 22 1 0
BITMAP
0700
0700
0700
0F80
0F80
0F80
0F80
0F80
18C0
18C0
18C0
18C0
18C0
7060
7FE0
7FE0
7FE0
E038
E038
E038
E038
E038
ENDCHAR
STARTCHAR 0042
ENCODING 66
SWIDTH 600 0
DWIDTH 15 0
BBX 13 22 1 0
BITMAP
FF80
FFC0
FFC0
E0E0
E0E0
E060
E060
E060
E0E0
FFC0
FFC0
FFE0
FFE0
E078
E038
E038
E038
E078
E078
FFE0
FFC0
FFC0
ENDCHAR
STARTCHAR 0043
ENCODING 67
SWIDTH 600 0
DWIDTH 15 0
BBX 13 22 1 0
BITMAP
0FC0
1FE0
1FE0
7878
7878
7038
E000
E000
E000
E000
E000
E000
E000
E000
E000
E000
7038
7878
7878
1FE0
0FC0
0FC0
ENDCHAR
STARTCHAR 0044
ENCODING 68
SWIDTH 600 0
DWIDTH 15 0
BBX 13 22 1 0
BITMAP
FF80
FFC0
FFC0
E0E0
E0E0
E060
E038
E038
E038
E038
E038
E038
E038
E038
E038
E060
E060
E0E0
E0E0
FFC0
FF80
FF80
ENDCHAR
STARTCHAR 0045
ENCODING 69
SWIDTH 600 0
DWIDTH 15 0
BBX 13 22 1 0
BITMAP
FFF8
FFF8
FFF8
E000
E000
E000
E000
E000
E000
FFC0
FFC0
FFC0
FFC0
E000
E000
E000
E000
E000
E000
FFF8
FFF8
FFF8
ENDCHAR
STARTCHAR 0046
ENCODING 70
SWIDTH 560 0
DWIDTH 14 0
BBX 13 22 1 0
BITMAP
FFF8
FFF8
FFF8
E000
E000
E000
E000
E000
E000
FFC0
FFC0
FFC0
FFC0
E000
E000
E000
E000
E000
E000
E000
E000
E000
ENDCHAR
STARTCHAR 0047
ENCODING 71
SWIDTH 600 0
DWIDTH 15 0
BBX 13 22 1 0
BITMAP
0FE0
1FF8
1FF8
7838
7838
7000
E000
E000
E000
E3F8
E3F8
E3F8
E3F8
E038
E038
E038
7038
7838
7838
1FF8
0FF8
0FF8
ENDCHAR
STARTCHAR 0048
ENCODING 72
SWIDTH 600 0
DWIDTH 15 0
BBX 13 22 1 0
BITMAP
E038
E038
E038
E038
E038
E038
E038
E038
E038
FFF8
FFF8
FFF8
FFF8
E038
E038
E038
E038
E038
E038
E038
E038
E038
ENDCHAR
STARTCHAR 0049
ENCODING 73
SWIDTH 400 0
DWIDTH 10 0
BBX 8 22 1 0
BITMAP
FF
FF
FF
18
18
18
18
18
18
18
18
18
18
18
18
18
18
18
18
FF
FF
FF
ENDCHAR
STARTCHAR 004A
ENCODING 74
SWIDTH 560 0
DWIDTH 14 0
BBX 12 22 0 0
BITMAP
0030
0030
0030
0030
0030
0030
0030
0030
0030
0030
0030
0030
0030
0030
C030
C030
C030
F060
F060
7FE0
3FC0
3FC0
ENDCHAR
STARTCHAR 004B
ENCODING 75
SWIDTH 600 0
DWIDTH 15 0
BBX 13 22 1 0
BITMAP
E038
E078
E078
E0E0
E0E0
E3C0
E780
E780
EF00
FC00
FC00
FC00
FC00
EF00
E780
E780
E3C0
E0E0
E0E0
E078
E038
E038
ENDCHAR
STARTCHAR 004C
ENCODING 76
SWIDTH 560 0
DWIDTH 14 0
BBX 13 22 1 0
BITMAP
E000
E000
E000
E000
E000
E000
E000
E000
E000
E000
E000
E000
E000
E000
E000
E000
E000
E000
E000
FFF8
FFF8
FFF8
ENDCHAR
STARTCHAR 004D
ENCODING 77
SWIDTH 600 0
DWIDTH 15 0
BBX 13 22 1 0
BITMAP
E038
F078
F078
F078
F078
F8F8
F8F8
F8F8
EFB8
EFB8
EFB8
E738
E738
E738
E038
E038
E038
E038
E038
E038
E038
E038
ENDCHAR
STARTCHAR 004E
ENCODING 78
SWIDTH 600 0
DWIDTH 15 0
BBX 13 22 1 0
BITMAP
E038
F038
F038
F038
F038
F838
EC38
EC38
EC38
E738
E738
E738
E738
E3B8
E3B8
E3B8
E0F8
E078
E078
E078
E038
E038
ENDCHAR
STARTCHAR 004F
ENCODING 79
SWIDTH 600 0
DWIDTH 15 0
BBX 13 22 1 0
BITMAP
0F80
1FC0
1FC0
78E0
78E0
7060
E038
E038
E038
E038
E038
E038
E038
E038
E038
E038
7060
78E0
78E0
1FC0
0F80
0F80
ENDCHAR
STARTCHAR 0050
ENCODING 80
SWIDTH 600 0
DWIDTH 15 0
BBX 13 22 1 0
BITMAP
FFC0
FFE0
FFE0
E078
E078
E038
E038
E038
E038
E038
E078
FFE0
FFE0
FFC0
E000
E000
E000
E000
E000
E000
E000
E000
ENDCHAR
STARTCHAR 0051
ENCODING 81
SWIDTH 600 0
DWIDTH 15 0
BBX 13 22 1 0
BITMAP
0F80
1FC0
1FC0
78E0
78E0
7060
E038
E038
E038
E038
E038
E038
E038
E038
E3B8
E3B8
73E0
78E0
78E0
1FF8
0FB8
0FB8
ENDCHAR
STARTCHAR 0052
ENCODING 82
SWIDTH 600 0
DWIDTH 15 0
BBX 13 22 1 0
BITMAP
FFC0
FFE0
FFE0
E078
E078
E038
E038
E038
E038
E038
E078
FFE0
FFE0
FFC0
E780
E780
E3C0
E0E0
E0E0
E078
E038
E038
ENDCHAR
STARTCHAR 0053
ENCODING 83
SWIDTH 600 0
DWIDTH 15 0
BBX 13 22 1 0
BITMAP
1FC0
7FE0
7FE0
F078
F078
E038
E000
E000
F000
7FC0
7FC0
1FE0
1FE0
0078
0038
0038
E038
F078
F078
7FE0
1FC0
1FC0
ENDCHAR
STARTCHAR 0054
ENCODING 84
SWIDTH 480 0
DWIDTH 12 0
BBX 10 22 1 0
BITMAP
FFC0
FFC0
FFC0
0C00
0C00
0C00
0C00
0C00
0C00
0C00
0C00
0C00
0C00
0C00
0C00
0C00
0C00
0C00
0C00
0C00
0C00
0C00
ENDCHAR
STARTCHAR 0055
ENCODING 85
SWIDTH 600 0
DWIDTH 15 0
BBX 13 22 1 0
BITMAP
E038
E038
E038
E038
E038
E038
E038
E038
E038
E038
E038
E038
E038
E038
E038
E038
E038
7060
7060
7FE0
1FC0
1FC0
ENDCHAR
STARTCHAR 0056
ENCODING 86
SWIDTH 600 0
DWIDTH 15 0
BBX 13 22 1 0
BITMAP
E038
E038
E038
E038
E038
7060
7060
7060
7060
18C0
18C0
18C0
18C0
18C0
0F80
0F80
0F80
0F80
0F80
0700
0700
0700
ENDCHAR
STARTCHAR 0057
ENCODING 87
SWIDTH 600 0
DWIDTH 15 0
BBX 13 22 1 0
BITMAP
E038
E038
E038
E038
E038
E038
E038
E038
E038
E038
E038
E738
E738
E738
EFB8
EFB8
F8F8
F078
F078
F078
E038
E038
ENDCHAR
STARTCHAR 0058
ENCODING 88
SWIDTH 600 0
DWIDTH 15 0
BBX 13 22 1 0
BITMAP
E038
E038
E038
7060
7060
7060
18C0
18C0
0F80
0700
0700
0700
0700
0F80
18C0
18C0
7060
7060
7060
E038
E038
E038
ENDCHAR
STARTCHAR 0059
ENCODING 89
SWIDTH 600 0
DWIDTH 15 0
BBX 13 22 1 0
BITMAP
E038
E038
E038
7060
7060
7060
18C0
18C0
18C0
0F80
0F80
0F80
0F80
0700
0700
0700
0700
0700
0700
0700
0700
0700
ENDCHAR
STARTCHAR 005A
ENCODING 90
SWIDTH 600 0
DWIDTH 15 0
BBX 13 22 1 0
BITMAP
FFF8
FFF8
FFF8
0060
0060
0060
00C0
00C0
0380
0700
0700
0700
0700
0C00
1800
1800
7000
7000
7000
FFF8
FFF8
FFF8
ENDCHAR
STARTCHAR 005B
ENCODING 91
SWIDTH 400 0
DWIDTH 10 0
BBX 8 22 1 0
BITMAP
FF
FF
FF
E0
E0
E0
E0
E0
E0
E0
E0
E0
E0
E0
E0
E0
E0
E0
E0
FF
FF
FF
ENDCHAR
STARTCHAR 005C
ENCODING 92
SWIDTH 560 0
DWIDTH 14 0
BBX 14 19 0 2
BITMAP
8000
8000
C000
C000
F000
7800
7800
3C00
0E00
0E00
0780
0780
03C0
01E0
01E0
0070
003C
003C
001C
ENDCHAR
STARTCHAR 005D
ENCODING 93
SWIDTH 400 0
DWIDTH 10 0
BBX 8 22 1 0
BITMAP
FF
FF
FF
07
07
07
07
07
07
07
07
07
07
07
07
07
07
07
07
FF
FF
FF
ENDCHAR
STARTCHAR 005E
ENCODING 94
SWIDTH 640 0
DWIDTH 16 0
BBX 14 11 1 11
BITMAP
0300
0780
0780
0FC0
0FC0
1CE0
7878
7878
F03C
E01C
E01C
ENDCHAR
STARTCHAR 005F
ENCODING 95
SWIDTH 640 0
DWIDTH 16 0
BBX 14 3 1 -3
BITMAP
FFFC
FFFC
FFFC
ENDCHAR
STARTCHAR 0060
ENCODING 96
SWIDTH 360 0
DWIDTH 9 0
BBX 6 6 1 15
BITMAP
F0
F0
78
78
1C
1C
ENDCHAR
STARTCHAR 0061
ENCODING 97
SWIDTH 600 0
DWIDTH 15 0
BBX 13 14 1 0
BITMAP
1FE0
7FF8
7FF8
0038
0038
1FF8
7FF8
7FF8
E038
E038
E038
FFF8
7FF8
7FF8
ENDCHAR
STARTCHAR 0062
ENCODING 98
SWIDTH 600 0
DWIDTH 15 0
BBX 13 22 1 0
BITMAP
E000
E000
E000
E000
E000
E000
E000
E000
EFC0
FFE0
FFE0
F078
F078
E038
E038
E038
E038
E038
E078
FFE0
FFC0
FFC0
ENDCHAR
STARTCHAR 0063
ENCODING 99
SWIDTH 600 0
DWIDTH 15 0
BBX 13 14 1 0
BITMAP
1FC0
7FE0
7FE0
F038
F038
E000
E000
E000
E000
F038
F038
7FE0
1FC0
1FC0
ENDCHAR
STARTCHAR 0064
ENCODING 100
SWIDTH 600 0
DWIDTH 15 0
BBX 13 22 1 0
BITMAP
0038
0038
0038
0038
0038
0038
0038
0038
1FB8
7FF8
7FF8
F0F8
F0F8
E038
E038
E038
E038
F038
F038
7FF8
1FF8
1FF8
ENDCHAR
STARTCHAR 0065
ENCODING 101
SWIDTH 600 0
DWIDTH 15 0
BBX 13 14 1 0
BITMAP
1FC0
7FE0
7FE0
F038
F038
FFF8
FFE0
FFE0
E000
F000
F000
7FE0
1FC0
1FC0
ENDCHAR
STARTCHAR 0066
ENCODING 102
SWIDTH 440 0
DWIDTH 11 0
BBX 10 22 1 0
BITMAP
07C0
0FC0
0FC0
1C00
1C00
1800
1800
1800
FF80
FF80
FF80
1800
1800
1800
1800
1800
1800
1800
1800
1800
1800
1800
ENDCHAR
STARTCHAR 0067
ENCODING 103
SWIDTH 600 0
DWIDTH 15 0
BBX 13 17 1 -3
BITMAP
1FF8
7FF8
7FF8
F038
F038
E038
F078
F078
7FF8
1FB8
1FB8
0038
0078
0078
7FE0
7FE0
7FC0
ENDCHAR
STARTCHAR 0068
ENCODING 104
SWIDTH 560 0
DWIDTH 14 0
BBX 11 22 1 0
BITMAP
E000
E000
E000
E000
E000
E000
E000
E000
EF80
FFC0
FFC0
F0E0
F0E0
E060
E060
E060
E060
E060
E060
E060
E060
E060
ENDCHAR
STARTCHAR 0069
ENCODING 105
SWIDTH 360 0
DWIDTH 9 0
BBX 8 19 1 0
BITMAP
18
18
18
00
00
78
78
78
18
18
18
18
18
18
18
18
FF
FF
FF
ENDCHAR
STARTCHAR 006A
ENCODING 106
SWIDTH 360 0
DWIDTH 9 0
BBX 7 22 0 -3
BITMAP
06
06
06
00
00
0E
0E
0E
06
06
06
06
06
06
06
06
06
C6
C6
FE
FE
7C
ENDCHAR
STARTCHAR 006B
ENCODING 107
SWIDTH 480 0
DWIDTH 12 0
BBX 10 22 1 0
BITMAP
E000
E000
E000
E000
E000
E000
E000
E000
E380
E780
E780
EF00
EF00
FC00
FC00
FC00
EF00
E780
E780
E3C0
E0C0
E0C0
ENDCHAR
STARTCHAR 006C
ENCODING 108
SWIDTH 360 0
DWIDTH 9 0
BBX 8 22 1 0
BITMAP
78
78
78
18
18
18
18
18
18
18
18
18
18
18
18
18
18
18
18
FF
FF
FF
ENDCHAR
STARTCHAR 006D
ENCODING 109
SWIDTH 600 0
DWIDTH 15 0
BBX 13 14 1 0
BITMAP
98C0
FFE0
FFE0
FFF8
FFF8
E738
E738
E738
E738
E738
E738
E738
E738
E738
ENDCHAR
STARTCHAR 006E
ENCODING 110
SWIDTH 560 0
DWIDTH 14 0
BBX 11 14 1 0
BITMAP
FF80
FFC0
FFC0
E0E0
E0E0
E060
E060
E060
E060
E060
E060
E060
E060
E060
ENDCHAR
STARTCHAR 006F
ENCODING 111
SWIDTH 600 0
DWIDTH 15 0
BBX 13 14 1 0
BITMAP
1FC0
7FE0
7FE0
F078
F078
E038
E038
E038
E038
F078
F078
7FE0
1FC0
1FC0
ENDCHAR
STARTCHAR 0070
ENCODING 112
SWIDTH 600 0
DWIDTH 15 0
BBX 13 17 1 -3
BITMAP
FFC0
FFE0
FFE0
E078
E078
E038
E038
E038
F078
FFE0
FFE0
EFC0
E000
E000
E000
E000
E000
ENDCHAR
STARTCHAR 0071
ENCODING 113
SWIDTH 600 0
DWIDTH 15 0
BBX 13 18 1 -3
BITMAP
1FF8
1FF8
7FF8
7FF8
F038
F038
E038
E038
E038
F078
7FF8
7FF8
1FB8
0038
0038
0038
0038
0038
ENDCHAR
STARTCHAR 0072
ENCODING 114
SWIDTH 480 0
DWIDTH 12 0
BBX 11 14 1 0
BITMAP
EFC0
FFE0
FFE0
F060
F060
E000
E000
E000
E000
E000
E000
E000
E000
E000
ENDCHAR
STARTCHAR 0073
ENCODING 115
SWIDTH 480 0
DWIDTH 12 0
BBX 10 14 1 0
BITMAP
7F80
FFC0
FFC0
E000
E000
FF80
7FC0
7FC0
00C0
00C0
00C0
FFC0
7F80
7F80
ENDCHAR
STARTCHAR 0074
ENCODING 116
SWIDTH 440 0
DWIDTH 11 0
BBX 10 21 1 0
BITMAP
1800
1800
1800
1800
1800
1800
1800
FF80
FF80
FF80
1800
1800
1800
1800
1800
1800
1800
1800
1FC0
0FC0
0FC0
ENDCHAR
STARTCHAR 0075
ENCODING 117
SWIDTH 600 0
DWIDTH 15 0
BBX 13 14 1 0
BITMAP
E038
E038
E038
E038
E038
E038
E038
E038
E038
F078
F078
7FF8
1FB8
1FB8
ENDCHAR
STARTCHAR 0076
ENCODING 118
SWIDTH 600 0
DWIDTH 15 0
BBX 13 14 1 0
BITMAP
E038
E038
E038
7060
7060
7060
18C0
18C0
18C0
0F80
0F80
0F80
0700
0700
ENDCHAR
STARTCHAR 0077
ENCODING 119
SWIDTH 600 0
DWIDTH 15 0
BBX 13 14 1 0
BITMAP
E738
E738
E738
E738
E738
E738
E738
E738
EFB8
7FE0
7FE0
78E0
1040
1040
ENDCHAR
STARTCHAR 0078
ENCODING 120
SWIDTH 560 0
DWIDTH 14 0
BBX 11 14 1 0
BITMAP
E060
F0E0
F0E0
7BC0
7BC0
1F80
0F00
0F00
1F80
7BC0
7BC0
F0E0
E060
E060
ENDCHAR
STARTCHAR 0079
ENCODING 121
SWIDTH 480 0
DWIDTH 12 0
BBX 10 17 1 -3
BITMAP
E0C0
E0C0
E0C0
7380
7380
7380
1F00
1F00
1F00
0C00
0C00
0C00
1800
1800
1800
1800
7000
ENDCHAR
STARTCHAR 007A
ENCODING 122
SWIDTH 560 0
DWIDTH 14 0
BBX 11 14 1 0
BITMAP
FFE0
FFC0
FFC0
0380
0380
0700
0C00
0C00
1800
7000
7000
FFE0
FFE0
FFE0
ENDCHAR
STARTCHAR 007B
ENCODING 123
SWIDTH 440 0
DWIDTH 11 0
BBX 10 24 0 -2
BITMAP
07C0
0FC0
0FC0
3C00
3C00
3800
3800
3800
3800
7800
7800
F000
F000
7800
3800
3800
3800
3800
3800
3C00
0FC0
0FC0
07C0
07C0
ENDCHAR
STARTCHAR 007C
ENCODING 124
SWIDTH 200 0
DWIDTH 5 0
BBX 3 22 1 0
BITMAP
E0
E0
E0
E0
E0
E0
E0
E0
E0
E0
E0
E0
E0
E0
E0
E0
E0
E0
E0
E0
E0
E0
ENDCHAR
STARTCHAR 007D
ENCODING 125
SWIDTH 440 0
DWIDTH 11 0
BBX 10 24 1 -2
BITMAP
F800
FC00
FC00
0F00
0F00
0700
0700
0700
0700
0780
0780
03C0
03C0
0780
0700
0700
0700
0700
0700
0F00
FC00
FC00
F800
F800
ENDCHAR
STARTCHAR 007E
ENCODING 126
SWIDTH 600 0
DWIDTH 15 0
BBX 13 5 1 14
BITMAP
1C38
1C38
7760
E3C0
E3C0
ENDCHAR
STARTCHAR 00A0
ENCODING 160
SWIDTH 280 0
DWIDTH 7 0
BBX 0 0 0 0
BITMAP
ENDCHAR
STARTCHAR 00A1
ENCODING 161
SWIDTH 280 0
DWIDTH 7 0
BBX 5 22 1 -3
BITMAP
70
70
70
00
00
00
70
70
70
70
70
F8
F8
F8
F8
F8
F8
F8
F8
70
70
70
ENDCHAR
STARTCHAR 00A2
ENCODING 162
SWIDTH 600 0
DWIDTH 15 0
BBX 13 22 1 0
BITMAP
0700
0700
0700
1FC0
1FC0
7FE0
F738
F738
E700
E700
E700
E700
E700
E700
F738
F738
7FE0
1FC0
1FC0
0700
0700
0700
ENDCHAR
STARTCHAR 00A3
ENCODING 163
SWIDTH 600 0
DWIDTH 15 0
BBX 13 22 1 0
BITMAP
0FC0
1FE0
1FE0
1860
1860
7038
7000
7000
7000
7000
7000
FFC0
FFC0
FFC0
7000
7000
7000
7000
7000
FFF8
FFF8
FFF8
ENDCHAR
STARTCHAR 00A4
ENCODING 164
SWIDTH 640 0
DWIDTH 16 0
BBX 14 19 1 2
BITMAP
E01C
E01C
7038
7038
1860
0FC0
0FC0
1CE0
1860
1860
1860
1860
1CE0
0FC0
0FC0
1860
7038
7038
E01C
ENDCHAR
STARTCHAR 00A5
ENCODING 165
SWIDTH 600 0
DWIDTH 15 0
BBX 13 22 1 0
BITMAP
E038
E038
E038
7060
7060
7060
18C0
18C0
18C0
0F80
0F80
0F80
0F80
0700
7FE0
7FE0
0700
7FE0
7FE0
0700
0700
0700
ENDCHAR
STARTCHAR 00A6
ENCODING 166
SWIDTH 200 0
DWIDTH 5 0
BBX 3 22 1 0
BITMAP
E0
E0
E0
E0
E0
E0
E0
E0
E0
E0
00
00
00
E0
E0
E0
E0
E0
E0
E0
E0
E0
ENDCHAR
STARTCHAR 00A7
ENCODING 167
SWIDTH 480 0
DWIDTH 12 0
BBX 10 24 1 -2
BITMAP
7F80
FFC0
FFC0
E000
E000
E000
FF80
FF80
7FC0
E0C0
E0C0
E0C0
E0C0
E0C0
FF80
FF80
7FC0
00C0
00C0
00C0
FFC0
FFC0
7F80
7F80
ENDCHAR
STARTCHAR 00A8
ENCODING 168
SWIDTH 400 0
DWIDTH 10 0
BBX 8 3 1 16
BITMAP
E7
E7
E7
ENDCHAR
STARTCHAR 00A9
ENCODING 169
SWIDTH 720 0
DWIDTH 18 0
BBX 16 22 1 0
BITMAP
0FF8
1FFC
1FFC
781E
781E
7006
E3C3
E3C3
E423
E423
E403
E403
E403
E423
E3C3
E3C3
7006
781E
781E
1FFC
0FF8
0FF8
ENDCHAR
STARTCHAR 00AA
ENCODING 170
SWIDTH 440 0
DWIDTH 11 0
BBX 9 17 1 5
BITMAP
1F00
7F80
7F80
0380
0380
1F80
7F80
7F80
E380
E380
FF80
7F80
7F80
0000
FF80
FF80
FF80
ENDCHAR
STARTCHAR 00AB
ENCODING 171
SWIDTH 600 0
DWIDTH 15 0
BBX 13 13 1 4
BITMAP
0C38
1C78
1C78
78E0
F3C0
F3C0
F3C0
F3C0
78E0
1C78
1C78
0C38
0C38
ENDCHAR
STARTCHAR 00AC
ENCODING 172
SWIDTH 480 0
DWIDTH 12 0
BBX 10 9 1 2
BITMAP
FFC0
FFC0
FFC0
00C0
00C0
00C0
00C0
00C0
00C0
ENDCHAR
STARTCHAR 00AD
ENCODING 173
SWIDTH 480 0
DWIDTH 12 0
BBX 10 3 1 8
BITMAP
FFC0
FFC0
FFC0
ENDCHAR
STARTCHAR 00AE
ENCODING 174
SWIDTH 720 0
DWIDTH 18 0
BBX 16 22 1 0
BITMAP
0FF8
1FFC
1FFC
781E
781E
7006
E7C3
E7C3
E423
E423
E423
E7C3
E7C3
E443
E423
E423
7006
781E
781E
1FFC
0FF8
0FF8
ENDCHAR
STARTCHAR 00AF
ENCODING 175
SWIDTH 400 0
DWIDTH 10 0
BBX 7 2 2 15
BITMAP
FE
FE
ENDCHAR
STARTCHAR 00B0
ENCODING 176
SWIDTH 480 0
DWIDTH 12 0
BBX 10 13 1 9
BITMAP
1F00
7F80
7F80
F3C0
F3C0
E0C0
E0C0
E0C0
F3C0
7F80
7F80
1F00
1F00
ENDCHAR
STARTCHAR 00B1
ENCODING 177
SWIDTH 480 0
DWIDTH 12 0
BBX 10 17 1 0
BITMAP
0C00
0C00
0C00
0C00
FFC0
FFC0
FFC0
FFC0
0C00
0C00
0C00
0C00
0000
0000
FFC0
FFC0
FFC0
ENDCHAR
STARTCHAR 00B2
ENCODING 178
SWIDTH 360 0
DWIDTH 9 0
BBX 9 13 1 9
BITMAP
7F00
FF80
FF80
E380
E380
0780
0F00
0F00
1C00
7F80
7F80
FF80
FF80
ENDCHAR
STARTCHAR 00B3
ENCODING 179
SWIDTH 440 0
DWIDTH 11 0
BBX 9 13 1 9
BITMAP
7F00
FF80
FF80
E380
E380
0F00
0F00
0F00
E380
FF80
FF80
7F00
7F00
ENDCHAR
STARTCHAR 00B4
ENCODING 180
SWIDTH 360 0
DWIDTH 9 0
BBX 6 5 1 16
BITMAP
1C
1C
78
78
F0
ENDCHAR
STARTCHAR 00B6
ENCODING 182
SWIDTH 600 0
DWIDTH 15 0
BBX 13 22 1 0
BITMAP
1FF8
7FF8
7FF8
FF38
FF38
FF38
FF38
FF38
7F38
1F38
1F38
0738
0738
0738
0738
0738
0738
0738
0738
0738
0738
0738
ENDCHAR
STARTCHAR 00B7
ENCODING 183
SWIDTH 240 0
DWIDTH 6 0
BBX 4 5 1 8
BITMAP
F0
F0
F0
F0
F0
ENDCHAR
STARTCHAR 00B8
ENCODING 184
SWIDTH 240 0
DWIDTH 6 0
BBX 4 5 1 -5
BITMAP
70
70
70
E0
E0
ENDCHAR
STARTCHAR 00B9
ENCODING 185
SWIDTH 400 0
DWIDTH 10 0
BBX 8 12 1 10
BITMAP
18
F8
F8
F8
F8
18
18
18
18
FF
FF
FF
ENDCHAR
STARTCHAR 00BA
ENCODING 186
SWIDTH 440 0
DWIDTH 11 0
BBX 9 17 1 5
BITMAP
1C00
7F00
7F00
E380
E380
E380
E380
E380
E380
7F00
7F00
1C00
1C00
0000
FF80
FF80
FF80
ENDCHAR
STARTCHAR 00BB
ENCODING 187
SWIDTH 600 0
DWIDTH 15 0
BBX 13 12 1 5
BITMAP
E380
F3C0
F3C0
78E0
1C78
1C78
1C78
1C78
78E0
F3C0
F3C0
E380
ENDCHAR
STARTCHAR 00BC
ENCODING 188
SWIDTH 920 0
DWIDTH 23 0
BBX 21 22 1 0
BITMAP
180000
F80080
F80080
F80180
F80180
180380
180700
180700
181E00
FF3C70
FF3C70
FF78F0
FF60F0
00E1F0
03C370
03C370
0787F8
0F07F8
0F07F8
0C0070
000070
000070
ENDCHAR
STARTCHAR 00BD
ENCODING 189
SWIDTH 1040 0
DWIDTH 26 0
BBX 24 22 1 0
BITMAP
180000
F80080
F80080
F80180
F80180
180380
180700
180700
181E00
FF3CFC
FF3CFC
FF79FF
FF7987
00E187
03C00F
03C00F
07801C
0F0078
0F0078
0C00FF
0001FF
0001FF
ENDCHAR
STARTCHAR 00BE
ENCODING 190
SWIDTH 920 0
DWIDTH 23 0
BBX 21 22 1 0
BITMAP
7F0000
FF8080
FF8080
E38180
E38180
0F0380
0F0700
0F0700
E39E00
FFBC70
FFBC70
7F78F0
7F78F0
00E1F0
03C370
03C370
0787F8
0F07F8
0F07F8
0C0070
000070
000070
ENDCHAR
STARTCHAR 00BF
ENCODING 191
SWIDTH 600 0
DWIDTH 15 0
BBX 13 22 1 -3
BITMAP
0700
0700
0700
0000
0000
0700
0700
0700
0700
0700
0F00
1C00
1C00
7800
F038
F038
E038
F078
F078
7FE0
7FE0
1FC0
ENDCHAR
STARTCHAR 00C0
ENCODING 192
SWIDTH 600 0
DWIDTH 15 0
BBX 13 25 1 0
BITMAP
1C00
0F00
0F00
0700
0700
0700
0F80
0F80
0F80
0F80
0F80
18C0
18C0
18C0
18C0
18C0
7060
7FE0
7FE0
7FE0
E038
E038
E038
E038
E038
ENDCHAR
STARTCHAR 00C1
ENCODING 193
SWIDTH 600 0
DWIDTH 15 0
BBX 13 26 1 0
BITMAP
0780
0780
0F00
0F00
0700
0700
0700
0F80
0F80
0F80
0F80
0F80
18C0
18C0
18C0
18C0
18C0
7060
7FE0
7FE0
7FE0
E038
E038
E038
E038
E038
ENDCHAR
STARTCHAR 00C2
ENCODING 194
SWIDTH 600 0
DWIDTH 15 0
BBX 13 25 1 0
BITMAP
0F80
18C0
18C0
0700
0700
0700
0F80
0F80
0F80
0F80
0F80
18C0
18C0
18C0
18C0
18C0
7060
7FE0
7FE0
7FE0
E038
E038
E038
E038
E038
ENDCHAR
STARTCHAR 00C3
ENCODING 195
SWIDTH 600 0
DWIDTH 15 0
BBX 13 25 1 0
BITMAP
0F40
1780
1780
0700
0700
0700
0F80
0F80
0F80
0F80
0F80
18C0
18C0
18C0
18C0
18C0
7060
7FE0
7FE0
7FE0
E038
E038
E038
E038
E038
ENDCHAR
STARTCHAR 00C4
ENCODING 196
SWIDTH 600 0
DWIDTH 15 0
BBX 13 25 1 0
BITMAP
18C0
18C0
18C0
0700
0700
0700
0F80
0F80
0F80
0F80
0F80
18C0
18C0
18C0
18C0
18C0
7060
7FE0
7FE0
7FE0
E038
E038
E038
E038
E038
ENDCHAR
STARTCHAR 00C5
ENCODING 197
SWIDTH 600 0
DWIDTH 15 0
BBX 13 25 1 0
BITMAP
0F80
18C0
18C0
0F80
0700
0700
0F80
0F80
0F80
0F80
0F80
18C0
18C0
18C0
18C0
18C0
7060
7FE0
7FE0
7FE0
E038
E038
E038
E038
E038
ENDCHAR
STARTCHAR 00C6
ENCODING 198
SWIDTH 680 0
DWIDTH 17 0
BBX 15 22 1 0
BITMAP
07FE
07FE
07FE
0FC0
0FC0
0FC0
0FC0
0FC0
18C0
18F8
18F8
18F8
18F8
70C0
7FC0
7FC0
7FC0
E0C0
E0C0
E0FE
E0FE
E0FE
ENDCHAR
STARTCHAR 00C7
ENCODING 199
SWIDTH 600 0
DWIDTH 15 0
BBX 13 27 1 -5
BITMAP
0FC0
1FE0
1FE0
7878
7878
7038
E000
E000
E000
E000
E000
E000
E000
E000
E000
E000
7038
7878
7878
1FE0
0FC0
0FC0
0380
0380
0380
0700
0700
ENDCHAR
STARTCHAR 00C8
ENCODING 200
SWIDTH 600 0
DWIDTH 15 0
BBX 13 25 1 0
BITMAP
0F00
0780
0780
FFF8
FFF8
FFF8
E000
E000
E000
E000
E000
E000
FFC0
FFC0
FFC0
FFC0
E000
E000
E000
E000
E000
E000
FFF8
FFF8
FFF8
ENDCHAR
STARTCHAR 00C9
ENCODING 201
SWIDTH 600 0
DWIDTH 15 0
BBX 13 26 1 0
BITMAP
03C0
03C0
0780
0780
FFF8
FFF8
FFF8
E000
E000
E000
E000
E000
E000
FFC0
FFC0
FFC0
FFC0
E000
E000
E000
E000
E000
E000
FFF8
FFF8
FFF8
ENDCHAR
STARTCHAR 00CA
ENCODING 202
SWIDTH 600 0
DWIDTH 15 0
BBX 13 25 1 0
BITMAP
0780
0CC0
0CC0
FFF8
FFF8
FFF8
E000
E000
E000
E000
E000
E000
FFC0
FFC0
FFC0
FFC0
E000
E000
E000
E000
E000
E000
FFF8
FFF8
FFF8
ENDCHAR
STARTCHAR 00CB
ENCODING 203
SWIDTH 600 0
DWIDTH 15 0
BBX 13 25 1 0
BITMAP
1CE0
1CE0
1CE0
FFF8
FFF8
FFF8
E000
E000
E000
E000
E000
E000
FFC0
FFC0
FFC0
FFC0
E000
E000
E000
E000
E000
E000
FFF8
FFF8
FFF8
ENDCHAR
STARTCHAR 00CC
ENCODING 204
SWIDTH 400 0
DWIDTH 10 0
BBX 8 25 1 0
BITMAP
F0
78
78
FF
FF
FF
18
18
18
18
18
18
18
18
18
18
18
18
18
18
18
18
FF
FF
FF
ENDCHAR
STARTCHAR 00CD
ENCODING 205
SWIDTH 400 0
DWIDTH 10 0
BBX 8 26 1 0
BITMAP
0F
0F
1C
1C
FF
FF
FF
18
18
18
18
18
18
18
18
18
18
18
18
18
18
18
18
FF
FF
FF
ENDCHAR
STARTCHAR 00CE
ENCODING 206
SWIDTH 400 0
DWIDTH 10 0
BBX 8 25 1 0
BITMAP
7C
E7
E7
FF
FF
FF
18
18
18
18
18
18
18
18
18
18
18
18
18
18
18
18
FF
FF
FF
ENDCHAR
STARTCHAR 00CF
ENCODING 207
SWIDTH 400 0
DWIDTH 10 0
BBX 8 25 1 0
BITMAP
E7
E7
E7
FF
FF
FF
18
18
18
18
18
18
18
18
18
18
18
18
18
18
18
18
FF
FF
FF
ENDCHAR
STARTCHAR 00D0
ENCODING 208
SWIDTH 600 0
DWIDTH 15 0
BBX 14 22 0 0
BITMAP
7FC0
7FE0
7FE0
7070
7070
7030
701C
701C
701C
FF9C
FF9C
FF9C
FF9C
701C
701C
701C
7030
7070
7070
7FE0
7FC0
7FC0
ENDCHAR
STARTCHAR 00D1
ENCODING 209
SWIDTH 600 0
DWIDTH 15 0
BBX 13 25 1 0
BITMAP
0740
0B80
0B80
E038
F038
F038
F038
F038
F838
EC38
EC38
EC38
E738
E738
E738
E738
E3B8
E3B8
E3B8
E0F8
E078
E078
E078
E038
E038
ENDCHAR
STARTCHAR 00D2
ENCODING 210
SWIDTH 600 0
DWIDTH 15 0
BBX 13 25 1 0
BITMAP
1C00
0F00
0F00
0F80
1FC0
1FC0
78E0
78E0
7060
E038
E038
E038
E038
E038
E038
E038
E038
E038
E038
7060
78E0
78E0
1FC0
0F80
0F80
ENDCHAR
STARTCHAR 00D3
ENCODING 211
SWIDTH 600 0
DWIDTH 15 0
BBX 13 26 1 0
BITMAP
03C0
03C0
0780
0780
0F80
1FC0
1FC0
78E0
78E0
7060
E038
E038
E038
E038
E038
E038
E038
E038
E038
E038
7060
78E0
78E0
1FC0
0F80
0F80
ENDCHAR
STARTCHAR 00D4
ENCODING 212
SWIDTH 600 0
DWIDTH 15 0
BBX 13 25 1 0
BITMAP
0F80
18C0
18C0
0F80
1FC0
1FC0
78E0
78E0
7060
E038
E038
E038
E038
E038
E038
E038
E038
E038
E038
7060
78E0
78E0
1FC0
0F80
0F80
ENDCHAR
STARTCHAR 00D5
ENCODING 213
SWIDTH 600 0
DWIDTH 15 0
BBX 13 25 1 0
BITMAP
0740
0B80
0B80
0F80
1FC0
1FC0
78E0
78E0
7060
E038
E038
E038
E038
E038
E038
E038
E038
E038
E038
7060
78E0
78E0
1FC0
0F80
0F80
ENDCHAR
STARTCHAR 00D6
ENCODING 214
SWIDTH 600 0
DWIDTH 15 0
BBX 13 25 1 0
BITMAP
18C0
18C0
18C0
0F80
1FC0
1FC0
78E0
78E0
7060
E038
E038
E038
E038
E038
E038
E038
E038
E038
E038
7060
78E0
78E0
1FC0
0F80
0F80
ENDCHAR
STARTCHAR 00D7
ENCODING 215
SWIDTH 560 0
DWIDTH 14 0
BBX 11 11 1 5
BITMAP
E060
E060
70C0
1B80
1B80
0F00
0F00
1B80
70C0
70C0
E060
ENDCHAR
STARTCHAR 00D8
ENCODING 216
SWIDTH 600 0
DWIDTH 15 0
BBX 13 22 1 0
BITMAP
0F80
1FD8
1FD8
78F8
78F8
7060
E0F8
E0F8
E3F8
E7B8
E7B8
EF38
EF38
FC38
F838
F838
7060
F8E0
F8E0
9FC0
0F80
0F80
ENDCHAR
STARTCHAR 00D9
ENCODING 217
SWIDTH 600 0
DWIDTH 15 0
BBX 13 25 1 0
BITMAP
1C00
0F00
0F00
E038
E038
E038
E038
E038
E038
E038
E038
E038
E038
E038
E038
E038
E038
E038
E038
E038
7060
7060
7FE0
1FC0
1FC0
ENDCHAR
STARTCHAR 00DA
ENCODING 218
SWIDTH 600 0
DWIDTH 15 0
BBX 13 26 1 0
BITMAP
03C0
03C0
0780
0780
E038
E038
E038
E038
E038
E038
E038
E038
E038
E038
E038
E038
E038
E038
E038
E038
E038
7060
7060
7FE0
1FC0
1FC0
ENDCHAR
STARTCHAR 00DB
ENCODING 219
SWIDTH 600 0
DWIDTH 15 0
BBX 13 25 1 0
BITMAP
0700
1D80
1D80
E038
E038
E038
E038
E038
E038
E038
E038
E038
E038
E038
E038
E038
E038
E038
E038
E038
7060
7060
7FE0
1FC0
1FC0
ENDCHAR
STARTCHAR 00DC
ENCODING 220
SWIDTH 600 0
DWIDTH 15 0
BBX 13 25 1 0
BITMAP
18C0
18C0
18C0
E038
E038
E038
E038
E038
E038
E038
E038
E038
E038
E038
E038
E038
E038
E038
E038
E038
7060
7060
7FE0
1FC0
1FC0
ENDCHAR
STARTCHAR 00DD
ENCODING 221
SWIDTH 600 0
DWIDTH 15 0
BBX 13 26 1 0
BITMAP
0380
0380
0700
0700
E038
E038
E038
7060
7060
7060
18C0
18C0
18C0
0F80
0F80
0F80
0F80
0700
0700
0700
0700
0700
0700
0700
0700
0700
ENDCHAR
STARTCHAR 00DE
ENCODING 222
SWIDTH 600 0
DWIDTH 15 0
BBX 13 22 1 0
BITMAP
E000
E000
E000
E000
E000
FFC0
FFE0
FFE0
E078
E038
E038
E038
E038
E038
E078
E078
FFE0
FFC0
FFC0
E000
E000
E000
ENDCHAR
STARTCHAR 00DF
ENCODING 223
SWIDTH 560 0
DWIDTH 14 0
BBX 11 22 1 0
BITMAP
1F00
7F80
7F80
F3C0
F3C0
E0C0
E0C0
E0C0
E3C0
E780
E780
E0C0
E0C0
E060
E060
E060
E060
E060
E060
EFE0
E7C0
E7C0
ENDCHAR
STARTCHAR 00E0
ENCODING 224
SWIDTH 600 0
DWIDTH 15 0
BBX 13 21 1 0
BITMAP
1C00
1C00
0F00
0F00
0780
0780
0000
1FE0
7FF8
7FF8
0038
0038
1FF8
7FF8
7FF8
E038
E038
E038
FFF8
7FF8
7FF8
ENDCHAR
STARTCHAR 00E1
ENCODING 225
SWIDTH 600 0
DWIDTH 15 0
BBX 13 21 1 0
BITMAP
03C0
03C0
0780
0780
0F00
0000
0000
1FE0
7FF8
7FF8
0038
0038
1FF8
7FF8
7FF8
E038
E038
E038
FFF8
7FF8
7FF8
ENDCHAR
STARTCHAR 00E2
ENCODING 226
SWIDTH 600 0
DWIDTH 15 0
BBX 13 21 1 0
BITMAP
0300
0300
0780
0780
0CC0
0000
0000
1FE0
7FF8
7FF8
0038
0038
1FF8
7FF8
7FF8
E038
E038
E038
FFF8
7FF8
7FF8
ENDCHAR
STARTCHAR 00E3
ENCODING 227
SWIDTH 600 0
DWIDTH 15 0
BBX 13 19 1 0
BITMAP
0740
0740
0B80
0000
0000
1FE0
7FF8
7FF8
0038
0038
1FF8
7FF8
7FF8
E038
E038
E038
FFF8
7FF8
7FF8
ENDCHAR
STARTCHAR 00E4
ENCODING 228
SWIDTH 600 0
DWIDTH 15 0
BBX 13 19 1 0
BITMAP
18C0
18C0
18C0
0000
0000
1FE0
7FF8
7FF8
0038
0038
1FF8
7FF8
7FF8
E038
E038
E038
FFF8
7FF8
7FF8
ENDCHAR
STARTCHAR 00E5
ENCODING 229
SWIDTH 600 0
DWIDTH 15 0
BBX 13 21 1 0
BITMAP
0F80
0F80
18C0
18C0
0F80
0000
0000
1FE0
7FF8
7FF8
0038
0038
1FF8
7FF8
7FF8
E038
E038
E038
FFF8
7FF8
7FF8
ENDCHAR
STARTCHAR 00E6
ENCODING 230
SWIDTH 880 0
DWIDTH 22 0
BBX 20 14 1 0
BITMAP
1FDF80
7FFFE0
7FFFE0
007870
007870
1FFFF0
7FFFE0
7FFFE0
E06000
E07800
E07800
FFFFE0
7FFF80
7FFF80
ENDCHAR
STARTCHAR 00E7
ENCODING 231
SWIDTH 600 0
DWIDTH 15 0
BBX 13 19 1 -5
BITMAP
1FC0
7FE0
7FE0
F038
F038
E000
E000
E000
E000
F038
F038
7FE0
1FC0
1FC0
0380
0380
0380
0700
0700
ENDCHAR
STARTCHAR 00E8
ENCODING 232
SWIDTH 600 0
DWIDTH 15 0
BBX 13 21 1 0
BITMAP
1C00
1C00
0F00
0F00
0780
0780
0000
1FC0
7FE0
7FE0
F038
F038
FFF8
FFE0
FFE0
E000
F000
F000
7FE0
1FC0
1FC0
ENDCHAR
STARTCHAR 00E9
ENCODING 233
SWIDTH 600 0
DWIDTH 15 0
BBX 13 21 1 0
BITMAP
03C0
03C0
0780
0780
0F00
0000
0000
1FC0
7FE0
7FE0
F038
F038
FFF8
FFE0
FFE0
E000
F000
F000
7FE0
1FC0
1FC0
ENDCHAR
STARTCHAR 00EA
ENCODING 234
SWIDTH 600 0
DWIDTH 15 0
BBX 13 21 1 0
BITMAP
0200
0200
0700
0700
1D80
0000
0000
1FC0
7FE0
7FE0
F038
F038
FFF8
FFE0
FFE0
E000
F000
F000
7FE0
1FC0
1FC0
ENDCHAR
STARTCHAR 00EB
ENCODING 235
SWIDTH 600 0
DWIDTH 15 0
BBX 13 19 1 0
BITMAP
18C0
18C0
18C0
0000
0000
1FC0
7FE0
7FE0
F038
F038
FFF8
FFE0
FFE0
E000
F000
F000
7FE0
1FC0
1FC0
ENDCHAR
STARTCHAR 00EC
ENCODING 236
SWIDTH 360 0
DWIDTH 9 0
BBX 9 21 0 0
BITMAP
F000
F000
7800
7800
3C00
3C00
0000
3C00
3C00
3C00
0C00
0C00
0C00
0C00
0C00
0C00
0C00
0C00
7F80
7F80
7F80
ENDCHAR
STARTCHAR 00ED
ENCODING 237
SWIDTH 360 0
DWIDTH 9 0
BBX 8 21 1 0
BITMAP
0F
0F
1C
1C
78
00
00
78
78
78
18
18
18
18
18
18
18
18
FF
FF
FF
ENDCHAR
STARTCHAR 00EE
ENCODING 238
SWIDTH 360 0
DWIDTH 9 0
BBX 8 21 1 0
BITMAP
10
10
78
78
EC
00
00
78
78
78
18
18
18
18
18
18
18
18
FF
FF
FF
ENDCHAR
STARTCHAR 00EF
ENCODING 239
SWIDTH 360 0
DWIDTH 9 0
BBX 8 19 1 0
BITMAP
E7
E7
E7
00
00
78
78
78
18
18
18
18
18
18
18
18
FF
FF
FF
ENDCHAR
STARTCHAR 00F0
ENCODING 240
SWIDTH 640 0
DWIDTH 16 0
BBX 14 22 1 0
BITMAP
1F1C
1FB8
1FB8
03C0
03C0
0CE0
1878
1878
0038
1FFC
1FFC
7FFC
7FFC
F03C
E01C
E01C
E01C
F03C
F03C
7FF8
1FE0
1FE0
ENDCHAR
STARTCHAR 00F1
ENCODING 241
SWIDTH 560 0
DWIDTH 14 0
BBX 11 19 1 0
BITMAP
0C80
0C80
1700
0000
0000
FF80
FFC0
FFC0
E0E0
E0E0
E060
E060
E060
E060
E060
E060
E060
E060
E060
ENDCHAR
STARTCHAR 00F2
ENCODING 242
SWIDTH 600 0
DWIDTH 15 0
BBX 13 21 1 0
BITMAP
1C00
1C00
0F00
0F00
0780
0780
0000
1FC0
7FE0
7FE0
F078
F078
E038
E038
E038
E038
F078
F078
7FE0
1FC0
1FC0
ENDCHAR
STARTCHAR 00F3
ENCODING 243
SWIDTH 600 0
DWIDTH 15 0
BBX 13 21 1 0
BITMAP
03C0
03C0
0780
0780
0F00
0000
0000
1FC0
7FE0
7FE0
F078
F078
E038
E038
E038
E038
F078
F078
7FE0
1FC0
1FC0
ENDCHAR
STARTCHAR 00F4
ENCODING 244
SWIDTH 600 0
DWIDTH 15 0
BBX 13 21 1 0
BITMAP
0200
0200
0700
0700
1D80
0000
0000
1FC0
7FE0
7FE0
F078
F078
E038
E038
E038
E038
F078
F078
7FE0
1FC0
1FC0
ENDCHAR
STARTCHAR 00F5
ENCODING 245
SWIDTH 600 0
DWIDTH 15 0
BBX 13 19 1 0
BITMAP
0E80
0E80
1B00
0000
0000
1FC0
7FE0
7FE0
F078
F078
E038
E038
E038
E038
F078
F078
7FE0
1FC0
1FC0
ENDCHAR
STARTCHAR 00F6
ENCODING 246
SWIDTH 600 0
DWIDTH 15 0
BBX 13 19 1 0
BITMAP
18C0
18C0
18C0
0000
0000
1FC0
7FE0
7FE0
F078
F078
E038
E038
E038
E038
F078
F078
7FE0
1FC0
1FC0
ENDCHAR
STARTCHAR 00F7
ENCODING 247
SWIDTH 480 0
DWIDTH 12 0
BBX 10 16 1 1
BITMAP
1E00
1E00
1E00
1E00
1E00
0000
FFC0
FFC0
FFC0
0000
0000
1E00
1E00
1E00
1E00
1E00
ENDCHAR
STARTCHAR 00F8
ENCODING 248
SWIDTH 600 0
DWIDTH 15 0
BBX 13 14 1 0
BITMAP
1FD8
7FE0
7FE0
F0F8
F0F8
E3B8
E738
E738
EC38
F878
F878
7FE0
DFC0
DFC0
ENDCHAR
STARTCHAR 00F9
ENCODING 249
SWIDTH 600 0
DWIDTH 15 0
BBX 13 21 1 0
BITMAP
1C00
1C00
0F00
0F00
0780
0780
0000
E038
E038
E038
E038
E038
E038
E038
E038
E038
F078
F078
7FF8
1FB8
1FB8
ENDCHAR
STARTCHAR 00FA
ENCODING 250
SWIDTH 600 0
DWIDTH 15 0
BBX 13 21 1 0
BITMAP
03C0
03C0
0780
0780
0F00
0000
0000
E038
E038
E038
E038
E038
E038
E038
E038
E038
F078
F078
7FF8
1FB8
1FB8
ENDCHAR
STARTCHAR 00FB
ENCODING 251
SWIDTH 600 0
DWIDTH 15 0
BBX 13 21 1 0
BITMAP
0200
0200
0700
0700
1D80
0000
0000
E038
E038
E038
E038
E038
E038
E038
E038
E038
F078
F078
7FF8
1FB8
1FB8
ENDCHAR
STARTCHAR 00FC
ENCODING 252
SWIDTH 600 0
DWIDTH 15 0
BBX 13 19 1 0
BITMAP
18C0
18C0
18C0
0000
0000
E038
E038
E038
E038
E038
E038
E038
E038
E038
F078
F078
7FF8
1FB8
1FB8
ENDCHAR
STARTCHAR 00FD
ENCODING 253
SWIDTH 480 0
DWIDTH 12 0
BBX 10 24 1 -3
BITMAP
0780
0780
0F00
0F00
1C00
0000
0000
E0C0
E0C0
E0C0
7380
7380
7380
1F00
1F00
1F00
0C00
0C00
0C00
1800
1800
1800
1800
7000
ENDCHAR
STARTCHAR 00FE
ENCODING 254
SWIDTH 600 0
DWIDTH 15 0
BBX 13 25 1 -3
BITMAP
E000
E000
E000
E000
E000
E000
E000
E000
EFC0
FFE0
FFE0
F078
F078
E038
E038
E038
E078
FFE0
FFE0
FFC0
E000
E000
E000
E000
E000
ENDCHAR
STARTCHAR 00FF
ENCODING 255
SWIDTH 480 0
DWIDTH 12 0
BBX 10 22 1 -3
BITMAP
7380
7380
7380
0000
0000
E0C0
E0C0
E0C0
7380
7380
7380
1F00
1F00
1F00
0C00
0C00
0C00
1800
1800
1800
1800
7000
ENDCHAR
STARTCHAR 0100
ENCODING 256
SWIDTH 600 0
DWIDTH 15 0
BBX 13 26 1 0
BITMAP
1FC0
1FC0
0000
0000
0700
0700
0700
0F80
0F80
0F80
0F80
0F80
18C0
18C0
18C0
18C0
18C0
7060
7FE0
7FE0
7FE0
E038
E038
E038
E038
E038
ENDCHAR
STARTCHAR 0101
ENCODING 257
SWIDTH 600 0
DWIDTH 15 0
BBX 13 17 1 0
BITMAP
0FC0
0FC0
0000
1FE0
7FF8
7FF8
0038
0038
1FF8
7FF8
7FF8
E038
E038
E038
FFF8
7FF8
7FF8
ENDCHAR
STARTCHAR 0102
ENCODING 258
SWIDTH 600 0
DWIDTH 15 0
BBX 13 25 1 0
BITMAP
18C0
0F80
0F80
0700
0700
0700
0F80
0F80
0F80
0F80
0F80
18C0
18C0
18C0
18C0
18C0
7060
7FE0
7FE0
7FE0
E038
E038
E038
E038
E038
ENDCHAR
STARTCHAR 0103
ENCODING 259
SWIDTH 600 0
DWIDTH 15 0
BBX 13 21 1 0
BITMAP
0CC0
0CC0
0CC0
0CC0
0780
0000
0000
1FE0
7FF8
7FF8
0038
0038
1FF8
7FF8
7FF8
E038
E038
E038
FFF8
7FF8
7FF8
ENDCHAR
STARTCHAR 0104
ENCODING 260
SWIDTH 600 0
DWIDTH 15 0
BBX 13 27 1 -5
BITMAP
0700
0700
0700
0F80
0F80
0F80
0F80
0F80
18C0
18C0
18C0
18C0
18C0
7060
7FE0
7FE0
7FE0
E038
E038
E038
E038
E038
0060
0060
0078
0078
0078
ENDCHAR
STARTCHAR 0105
ENCODING 261
SWIDTH 600 0
DWIDTH 15 0
BBX 13 19 1 -5
BITMAP
1FE0
7FF8
7FF8
0038
0038
1FF8
7FF8
7FF8
E038
E038
E038
FFF8
7FF8
7FF8
0060
0060
0078
0078
0078
ENDCHAR
STARTCHAR 0106
ENCODING 262
SWIDTH 600 0
DWIDTH 15 0
BBX 13 26 1 0
BITMAP
00E0
00E0
03C0
03C0
0FC0
1FE0
1FE0
7878
7878
7038
E000
E000
E000
E000
E000
E000
E000
E000
E000
E000
7038
7878
7878
1FE0
0FC0
0FC0
ENDCHAR
STARTCHAR 0107
ENCODING 263
SWIDTH 600 0
DWIDTH 15 0
BBX 13 21 1 0
BITMAP
03C0
03C0
0780
0780
0F00
0000
0000
1FC0
7FE0
7FE0
F038
F038
E000
E000
E000
E000
F038
F038
7FE0
1FC0
1FC0
ENDCHAR
STARTCHAR 010A
ENCODING 266
SWIDTH 600 0
DWIDTH 15 0
BBX 13 25 1 0
BITMAP
0300
0300
0300
0FC0
1FE0
1FE0
7878
7878
7038
E000
E000
E000
E000
E000
E000
E000
E000
E000
E000
7038
7878
7878
1FE0
0FC0
0FC0
ENDCHAR
STARTCHAR 010B
ENCODING 267
SWIDTH 600 0
DWIDTH 15 0
BBX 13 19 1 0
BITMAP
0700
0700
0700
0000
0000
1FC0
7FE0
7FE0
F038
F038
E000
E000
E000
E000
F038
F038
7FE0
1FC0
1FC0
ENDCHAR
STARTCHAR 010C
ENCODING 268
SWIDTH 600 0
DWIDTH 15 0
BBX 13 25 1 0
BITMAP
0CC0
0780
0780
0FC0
1FE0
1FE0
7878
7878
7038
E000
E000
E000
E000
E000
E000
E000
E000
E000
E000
7038
7878
7878
1FE0
0FC0
0FC0
ENDCHAR
STARTCHAR 010D
ENCODING 269
SWIDTH 600 0
DWIDTH 15 0
BBX 13 21 1 0
BITMAP
0CC0
0CC0
0780
0780
0300
0000
0000
1FC0
7FE0
7FE0
F038
F038
E000
E000
E000
E000
F038
F038
7FE0
1FC0
1FC0
ENDCHAR
STARTCHAR 010E
ENCODING 270
SWIDTH 600 0
DWIDTH 15 0
BBX 13 25 1 0
BITMAP
1B80
0F00
0F00
FF80
FFC0
FFC0
E0E0
E0E0
E060
E038
E038
E038
E038
E038
E038
E038
E038
E038
E038
E060
E0E0
E0E0
FFC0
FF80
FF80
ENDCHAR
STARTCHAR 010F
ENCODING 271
SWIDTH 800 0
DWIDTH 20 0
BBX 17 22 1 0
BITMAP
003B80
003B80
003B80
003B80
003B80
003980
003B00
003B00
1FB800
7FF800
7FF800
F0F800
F0F800
E03800
E03800
E03800
E03800
F03800
F03800
7FF800
1FF800
1FF800
ENDCHAR
STARTCHAR 0110
ENCODING 272
SWIDTH 600 0
DWIDTH 15 0
BBX 14 22 0 0
BITMAP
7FC0
7FE0
7FE0
7070
7070
7030
701C
701C
701C
FF9C
FF9C
FF9C
FF9C
701C
701C
701C
7030
7070
7070
7FE0
7FC0
7FC0
ENDCHAR
STARTCHAR 0111
ENCODING 273
SWIDTH 600 0
DWIDTH 15 0
BBX 14 22 1 0
BITMAP
0038
0038
0038
0038
0038
1FFC
0038
0038
1FB8
7FF8
7FF8
F0F8
F0F8
E038
E038
E038
E038
F038
F038
7FF8
1FF8
1FF8
ENDCHAR
STARTCHAR 0112
ENCODING 274
SWIDTH 600 0
DWIDTH 15 0
BBX 13 25 1 0
BITMAP
0FC0
0FC0
0000
FFF8
FFF8
FFF8
E000
E000
E000
E000
E000
E000
FFC0
FFC0
FFC0
FFC0
E000
E000
E000
E000
E000
E000
FFF8
FFF8
FFF8
ENDCHAR
STARTCHAR 0113
ENCODING 275
SWIDTH 600 0
DWIDTH 15 0
BBX 13 18 1 0
BITMAP
1FC0
1FC0
0000
0000
1FC0
7FE0
7FE0
F038
F038
FFF8
FFE0
FFE0
E000
F000
F000
7FE0
1FC0
1FC0
ENDCHAR
STARTCHAR 0116
ENCODING 278
SWIDTH 600 0
DWIDTH 15 0
BBX 13 25 1 0
BITMAP
0300
0300
0300
FFF8
FFF8
FFF8
E000
E000
E000
E000
E000
E000
FFC0
FFC0
FFC0
FFC0
E000
E000
E000
E000
E000
E000
FFF8
FFF8
FFF8
ENDCHAR
STARTCHAR 0117
ENCODING 279
SWIDTH 600 0
DWIDTH 15 0
BBX 13 19 1 0
BITMAP
0700
0700
0700
0000
0000
1FC0
7FE0
7FE0
F038
F038
FFF8
FFE0
FFE0
E000
F000
F000
7FE0
1FC0
1FC0
ENDCHAR
STARTCHAR 0118
ENCODING 280
SWIDTH 600 0
DWIDTH 15 0
BBX 13 27 1 -5
BITMAP
FFF8
FFF8
FFF8
E000
E000
E000
E000
E000
E000
FFC0
FFC0
FFC0
FFC0
E000
E000
E000
E000
E000
E000
FFF8
FFF8
FFF8
0060
0060
0078
0078
0078
ENDCHAR
STARTCHAR 0119
ENCODING 281
SWIDTH 600 0
DWIDTH 15 0
BBX 13 19 1 -5
BITMAP
1FC0
7FE0
7FE0
F038
F038
FFF8
FFE0
FFE0
E000
F000
F000
7FE0
1FC0
1FC0
00C0
00C0
00E0
00E0
00E0
ENDCHAR
STARTCHAR 011A
ENCODING 282
SWIDTH 600 0
DWIDTH 15 0
BBX 13 25 1 0
BITMAP
0CC0
0780
0780
FFF8
FFF8
FFF8
E000
E000
E000
E000
E000
E000
FFC0
FFC0
FFC0
FFC0
E000
E000
E000
E000
E000
E000
FFF8
FFF8
FFF8
ENDCHAR
STARTCHAR 011B
ENCODING 283
SWIDTH 600 0
DWIDTH 15 0
BBX 13 21 1 0
BITMAP
1D80
1D80
0700
0700
0200
0000
0000
1FC0
7FE0
7FE0
F038
F038
FFF8
FFE0
FFE0
E000
F000
F000
7FE0
1FC0
1FC0
ENDCHAR
STARTCHAR 011E
ENCODING 286
SWIDTH 600 0
DWIDTH 15 0
BBX 13 25 1 0
BITMAP
0CC0
0780
0780
0FE0
1FF8
1FF8
7838
7838
7000
E000
E000
E000
E3F8
E3F8
E3F8
E3F8
E038
E038
E038
7038
7838
7838
1FF8
0FF8
0FF8
ENDCHAR
STARTCHAR 011F
ENCODING 287
SWIDTH 600 0
DWIDTH 15 0
BBX 13 24 1 -3
BITMAP
0CC0
0CC0
0CC0
0CC0
0780
0000
0000
1FF8
7FF8
7FF8
F038
F038
E038
F078
F078
7FF8
1FB8
1FB8
0038
0078
0078
7FE0
7FE0
7FC0
ENDCHAR
STARTCHAR 0120
ENCODING 288
SWIDTH 600 0
DWIDTH 15 0
BBX 13 25 1 0
BITMAP
0380
0380
0380
0FE0
1FF8
1FF8
7838
7838
7000
E000
E000
E000
E3F8
E3F8
E3F8
E3F8
E038
E038
E038
7038
7838
7838
1FF8
0FF8
0FF8
ENDCHAR
STARTCHAR 0121
ENCODING 289
SWIDTH 600 0
DWIDTH 15 0
BBX 13 22 1 -3
BITMAP
0700
0700
0700
0000
0000
1FF8
7FF8
7FF8
F038
F038
E038
F078
F078
7FF8
1FB8
1FB8
0038
0078
0078
7FE0
7FE0
7FC0
ENDCHAR
STARTCHAR 0122
ENCODING 290
SWIDTH 600 0
DWIDTH 15 0
BBX 13 26 1 -4
BITMAP
0FE0
1FF8
1FF8
7838
7838
7000
E000
E000
E000
E3F8
E3F8
E3F8
E3F8
E038
E038
E038
7038
7838
7838
1FF8
0FF8
0FF8
0380
0380
0700
0700
ENDCHAR
STARTCHAR 0123
ENCODING 291
SWIDTH 600 0
DWIDTH 15 0
BBX 13 25 1 -3
BITMAP
0380
0700
0700
0780
0780
0780
0000
0000
1FF8
7FF8
7FF8
F038
F038
E038
F078
F078
7FF8
1FB8
1FB8
0038
0078
0078
7FE0
7FE0
7FC0
ENDCHAR
STARTCHAR 0126
ENCODING 294
SWIDTH 600 0
DWIDTH 15 0
BBX 15 22 0 0
BITMAP
701C
701C
701C
701C
701C
FFFE
701C
701C
701C
701C
7FFC
7FFC
7FFC
701C
701C
701C
701C
701C
701C
701C
701C
701C
ENDCHAR
STARTCHAR 0127
ENCODING 295
SWIDTH 560 0
DWIDTH 14 0
BBX 12 22 0 0
BITMAP
7000
7000
7000
7000
7000
FFC0
7000
7000
77C0
7FE0
7FE0
7870
7870
7030
7030
7030
7030
7030
7030
7030
7030
7030
ENDCHAR
STARTCHAR 0128
ENCODING 296
SWIDTH 400 0
DWIDTH 10 0
BBX 8 25 1 0
BITMAP
7B
DC
DC
FF
FF
FF
18
18
18
18
18
18
18
18
18
18
18
18
18
18
18
18
FF
FF
FF
ENDCHAR
STARTCHAR 0129
ENCODING 297
SWIDTH 360 0
DWIDTH 9 0
BBX 8 19 1 0
BITMAP
74
74
98
00
00
78
78
78
18
18
18
18
18
18
18
18
FF
FF
FF
ENDCHAR
STARTCHAR 012A
ENCODING 298
SWIDTH 400 0
DWIDTH 10 0
BBX 8 26 1 0
BITMAP
FF
FF
00
00
FF
FF
FF
18
18
18
18
18
18
18
18
18
18
18
18
18
18
18
18
FF
FF
FF
ENDCHAR
STARTCHAR 012B
ENCODING 299
SWIDTH 360 0
DWIDTH 9 0
BBX 8 17 1 0
BITMAP
FC
FC
00
78
78
78
18
18
18
18
18
18
18
18
FF
FF
FF
ENDCHAR
STARTCHAR 012C
ENCODING 300
SWIDTH 400 0
DWIDTH 10 0
BBX 8 25 1 0
BITMAP
E7
7C
7C
FF
FF
FF
18
18
18
18
18
18
18
18
18
18
18
18
18
18
18
18
FF
FF
FF
ENDCHAR
STARTCHAR 012D
ENCODING 301
SWIDTH 360 0
DWIDTH 9 0
BBX 8 21 1 0
BITMAP
EC
EC
EC
EC
78
00
00
78
78
78
18
18
18
18
18
18
18
18
FF
FF
FF
ENDCHAR
STARTCHAR 012E
ENCODING 302
SWIDTH 400 0
DWIDTH 10 0
BBX 8 26 1 -4
BITMAP
FF
FF
FF
18
18
18
18
18
18
18
18
18
18
18
18
18
18
18
18
FF
FF
FF
18
18
1C
1C
ENDCHAR
STARTCHAR 012F
ENCODING 303
SWIDTH 360 0
DWIDTH 9 0
BBX 8 24 1 -5
BITMAP
18
18
18
00
00
78
78
78
18
18
18
18
18
18
18
18
FF
FF
FF
18
18
1C
1C
1C
ENDCHAR
STARTCHAR 0130
ENCODING 304
SWIDTH 400 0
DWIDTH 10 0
BBX 8 25 1 0
BITMAP
18
18
18
FF
FF
FF
18
18
18
18
18
18
18
18
18
18
18
18
18
18
18
18
FF
FF
FF
ENDCHAR
STARTCHAR 0131
ENCODING 305
SWIDTH 360 0
DWIDTH 9 0
BBX 8 14 1 0
BITMAP
78
78
78
18
18
18
18
18
18
18
18
FF
FF
FF
ENDCHAR
STARTCHAR 0132
ENCODING 306
SWIDTH 680 0
DWIDTH 17 0
BBX 15 22 1 0
BITMAP
E006
E006
E006
E006
E006
E006
E006
E006
E006
E006
E006
E006
E006
E006
E706
E706
E706
E79C
E79C
E3FC
E0F8
E0F8
ENDCHAR
STARTCHAR 0133
ENCODING 307
SWIDTH 440 0
DWIDTH 11 0
BBX 9 22 1 -3
BITMAP
7380
7380
7380
0000
0000
F780
F780
F780
7380
7380
7380
7380
7380
7380
7380
7380
0380
7380
7380
7F80
7F80
1F00
ENDCHAR
STARTCHAR 0136
ENCODING 310
SWIDTH 600 0
DWIDTH 15 0
BBX 13 27 1 -5
BITMAP
E038
E078
E078
E0E0
E0E0
E3C0
E780
E780
EF00
FC00
FC00
FC00
FC00
EF00
E780
E780
E3C0
E0E0
E0E0
E078
E038
E038
0700
0700
0700
0C00
0C00
ENDCHAR
STARTCHAR 0137
ENCODING 311
SWIDTH 480 0
DWIDTH 12 0
BBX 10 27 1 -5
BITMAP
E000
E000
E000
E000
E000
E000
E000
E000
E380
E780
E780
EF00
EF00
FC00
FC00
FC00
EF00
E780
E780
E3C0
E0C0
E0C0
0C00
0C00
0C00
1800
1800
ENDCHAR
STARTCHAR 0139
ENCODING 313
SWIDTH 560 0
DWIDTH 14 0
BBX 13 26 1 0
BITMAP
1C00
1C00
7800
7800
E000
E000
E000
E000
E000
E000
E000
E000
E000
E000
E000
E000
E000
E000
E000
E000
E000
E000
E000
FFF8
FFF8
FFF8
ENDCHAR
STARTCHAR 013A
ENCODING 314
SWIDTH 360 0
DWIDTH 9 0
BBX 8 26 1 0
BITMAP
1C
1C
78
78
78
78
78
18
18
18
18
18
18
18
18
18
18
18
18
18
18
18
18
FF
FF
FF
ENDCHAR
STARTCHAR 013B
ENCODING 315
SWIDTH 560 0
DWIDTH 14 0
BBX 13 27 1 -5
BITMAP
E000
E000
E000
E000
E000
E000
E000
E000
E000
E000
E000
E000
E000
E000
E000
E000
E000
E000
E000
FFF8
FFF8
FFF8
0380
0380
0380
0700
0700
ENDCHAR
STARTCHAR 013C
ENCODING 316
SWIDTH 360 0
DWIDTH 9 0
BBX 8 27 1 -5
BITMAP
78
78
78
18
18
18
18
18
18
18
18
18
18
18
18
18
18
18
18
FF
FF
FF
18
18
18
70
70
ENDCHAR
STARTCHAR 013D
ENCODING 317
SWIDTH 560 0
DWIDTH 14 0
BBX 13 22 1 0
BITMAP
E780
E780
E780
E780
E780
E380
E700
E700
E000
E000
E000
E000
E000
E000
E000
E000
E000
E000
E000
FFF8
FFF8
FFF8
ENDCHAR
STARTCHAR 013E
ENCODING 318
SWIDTH 480 0
DWIDTH 12 0
BBX 10 22 1 0
BITMAP
7BC0
7BC0
7BC0
1BC0
1BC0
18C0
1B80
1B80
1800
1800
1800
1800
1800
1800
1800
1800
1800
1800
1800
FF00
FF00
FF00
ENDCHAR
STARTCHAR 0141
ENCODING 321
SWIDTH 600 0
DWIDTH 15 0
BBX 15 22 0 0
BITMAP
3800
3800
3800
3800
3800
3800
3A00
3A00
3E00
3C00
3C00
7800
7800
F800
F800
F800
B800
3800
3800
3FFE
3FFE
3FFE
ENDCHAR
STARTCHAR 0142
ENCODING 322
SWIDTH 400 0
DWIDTH 10 0
BBX 8 22 1 0
BITMAP
78
78
78
18
18
1B
1F
1F
1F
1C
1C
78
78
F8
F8
F8
98
18
18
FF
FF
FF
ENDCHAR
STARTCHAR 0143
ENCODING 323
SWIDTH 600 0
DWIDTH 15 0
BBX 13 26 1 0
BITMAP
0380
0380
0700
0700
E038
F038
F038
F038
F038
F838
EC38
EC38
EC38
E738
E738
E738
E738
E3B8
E3B8
E3B8
E0F8
E078
E078
E078
E038
E038
ENDCHAR
STARTCHAR 0144
ENCODING 324
SWIDTH 560 0
DWIDTH 14 0
BBX 11 21 1 0
BITMAP
03C0
03C0
0780
0780
0F00
0000
0000
FF80
FFC0
FFC0
E0E0
E0E0
E060
E060
E060
E060
E060
E060
E060
E060
E060
ENDCHAR
STARTCHAR 0145
ENCODING 325
SWIDTH 600 0
DWIDTH 15 0
BBX 13 27 1 -5
BITMAP
E038
F038
F038
F038
F038
F838
EC38
EC38
EC38
E738
E738
E738
E738
E3B8
E3B8
E3B8
E0F8
E078
E078
E078
E038
E038
0700
0700
0700
0C00
0C00
ENDCHAR
STARTCHAR 0146
ENCODING 326
SWIDTH 560 0
DWIDTH 14 0
BBX 11 19 1 -5
BITMAP
FF80
FFC0
FFC0
E0E0
E0E0
E060
E060
E060
E060
E060
E060
E060
E060
E060
0700
0700
0700
0C00
0C00
ENDCHAR
STARTCHAR 0147
ENCODING 327
SWIDTH 600 0
DWIDTH 15 0
BBX 13 25 1 0
BITMAP
0CC0
0780
0780
E038
F038
F038
F038
F038
F838
EC38
EC38
EC38
E738
E738
E738
E738
E3B8
E3B8
E3B8
E0F8
E078
E078
E078
E038
E038
ENDCHAR
STARTCHAR 0148
ENCODING 328
SWIDTH 560 0
DWIDTH 14 0
BBX 11 21 1 0
BITMAP
1B80
1B80
0F00
0F00
0400
0000
0000
FF80
FFC0
FFC0
E0E0
E0E0
E060
E060
E060
E060
E060
E060
E060
E060
E060
ENDCHAR
STARTCHAR 014A
ENCODING 330
SWIDTH 600 0
DWIDTH 15 0
BBX 13 25 1 -3
BITMAP
FFC0
FFC0
FFE0
E078
E078
E038
E038
E038
E038
E038
E038
E038
E038
E038
E038
E038
E038
E038
E038
E038
E038
E038
03F8
03F8
03E0
ENDCHAR
STARTCHAR 014B
ENCODING 331
SWIDTH 560 0
DWIDTH 14 0
BBX 11 17 1 -3
BITMAP
FF80
FFC0
FFC0
E0E0
E0E0
E060
E060
E060
E060
E060
E060
E060
E060
E060
07E0
07E0
07C0
ENDCHAR
STARTCHAR 014C
ENCODING 332
SWIDTH 600 0
DWIDTH 15 0
BBX 13 26 1 0
BITMAP
1FC0
1FC0
0000
0000
0F80
1FC0
1FC0
78E0
78E0
7060
E038
E038
E038
E038
E038
E038
E038
E038
E038
E038
7060
78E0
78E0
1FC0
0F80
0F80
ENDCHAR
STARTCHAR 014D
ENCODING 333
SWIDTH 600 0
DWIDTH 15 0
BBX 13 18 1 0
BITMAP
1FC0
1FC0
0000
0000
1FC0
7FE0
7FE0
F078
F078
E038
E038
E038
E038
F078
F078
7FE0
1FC0
1FC0
ENDCHAR
STARTCHAR 0150
ENCODING 336
SWIDTH 600 0
DWIDTH 15 0
BBX 13 25 1 0
BITMAP
0F78
1CE0
1CE0
0F80
1FC0
1FC0
78E0
78E0
7060
E038
E038
E038
E038
E038
E038
E038
E038
E038
E038
7060
78E0
78E0
1FC0
0F80
0F80
ENDCHAR
STARTCHAR 0151
ENCODING 337
SWIDTH 600 0
DWIDTH 15 0
BBX 14 21 1 0
BITMAP
07BC
07BC
0F78
0F78
1CE0
0000
0000
1FC0
7FE0
7FE0
F078
F078
E038
E038
E038
E038
F078
F078
7FE0
1FC0
1FC0
ENDCHAR
STARTCHAR 0152
ENCODING 338
SWIDTH 840 0
DWIDTH 21 0
BBX 19 22 1 0
BITMAP
0FBFE0
1FFFE0
1FFFE0
78F800
78F800
707800
E03800
E03800
E03800
E03F00
E03F00
E03F00
E03F00
E03800
E03800
E03800
707800
78F800
78F800
1FFFE0
0FBFE0
0FBFE0
ENDCHAR
STARTCHAR 0153
ENCODING 339
SWIDTH 840 0
DWIDTH 21 0
BBX 19 14 1 0
BITMAP
1FBF00
7FFF80
7FFF80
F0E0E0
F0E0E0
E0FFE0
E0FFE0
E0FF80
E0E000
F0E000
F0E000
7FFF80
1FBF00
1FBF00
ENDCHAR
STARTCHAR 0154
ENCODING 340
SWIDTH 600 0
DWIDTH 15 0
BBX 13 26 1 0
BITMAP
0780
0780
0F00
0F00
FFC0
FFE0
FFE0
E078
E078
E038
E038
E038
E038
E038
E078
FFE0
FFE0
FFC0
E780
E780
E3C0
E0E0
E0E0
E078
E038
E038
ENDCHAR
STARTCHAR 0155
ENCODING 341
SWIDTH 480 0
DWIDTH 12 0
BBX 11 21 1 0
BITMAP
03C0
03C0
0780
0780
0F00
0000
0000
EFC0
FFE0
FFE0
F060
F060
E000
E000
E000
E000
E000
E000
E000
E000
E000
ENDCHAR
STARTCHAR 0156
ENCODING 342
SWIDTH 600 0
DWIDTH 15 0
BBX 13 27 1 -5
BITMAP
FFC0
FFE0
FFE0
E078
E078
E038
E038
E038
E038
E038
E078
FFE0
FFE0
FFC0
E780
E780
E3C0
E0E0
E0E0
E078
E038
E038
0700
0700
0700
0C00
0C00
ENDCHAR
STARTCHAR 0157
ENCODING 343
SWIDTH 480 0
DWIDTH 12 0
BBX 12 19 0 -5
BITMAP
77E0
7FF0
7FF0
7830
7830
7000
7000
7000
7000
7000
7000
7000
7000
7000
7000
7000
7000
C000
C000
ENDCHAR
STARTCHAR 0158
ENCODING 344
SWIDTH 600 0
DWIDTH 15 0
BBX 13 25 1 0
BITMAP
1B80
0F00
0F00
FFC0
FFE0
FFE0
E078
E078
E038
E038
E038
E038
E038
E078
FFE0
FFE0
FFC0
E780
E780
E3C0
E0E0
E0E0
E078
E038
E038
ENDCHAR
STARTCHAR 0159
ENCODING 345
SWIDTH 480 0
DWIDTH 12 0
BBX 11 21 1 0
BITMAP
1B80
1B80
0F00
0F00
0400
0000
0000
EFC0
FFE0
FFE0
F060
F060
E000
E000
E000
E000
E000
E000
E000
E000
E000
ENDCHAR
STARTCHAR 015A
ENCODING 346
SWIDTH 600 0
DWIDTH 15 0
BBX 13 26 1 0
BITMAP
03C0
03C0
0780
0780
1FC0
7FE0
7FE0
F078
F078
E038
E000
E000
F000
7FC0
7FC0
1FE0
1FE0
0078
0038
0038
E038
F078
F078
7FE0
1FC0
1FC0
ENDCHAR
STARTCHAR 015B
ENCODING 347
SWIDTH 480 0
DWIDTH 12 0
BBX 10 21 1 0
BITMAP
03C0
03C0
0780
0780
0F00
0000
0000
7F80
FFC0
FFC0
E000
E000
FF80
7FC0
7FC0
00C0
00C0
00C0
FFC0
7F80
7F80
ENDCHAR
STARTCHAR 015E
ENCODING 350
SWIDTH 600 0
DWIDTH 15 0
BBX 13 27 1 -5
BITMAP
1FC0
7FE0
7FE0
F078
F078
E038
E000
E000
F000
7FC0
7FC0
1FE0
1FE0
0078
0038
0038
E038
F078
F078
7FE0
1FC0
1FC0
0700
0700
0700
0C00
0C00
ENDCHAR
STARTCHAR 015F
ENCODING 351
SWIDTH 480 0
DWIDTH 12 0
BBX 10 19 1 -5
BITMAP
7F80
FFC0
FFC0
E000
E000
FF80
7FC0
7FC0
00C0
00C0
00C0
FFC0
7F80
7F80
0C00
0C00
0C00
1800
1800
ENDCHAR
STARTCHAR 0160
ENCODING 352
SWIDTH 600 0
DWIDTH 15 0
BBX 13 25 1 0
BITMAP
1D80
0700
0700
1FC0
7FE0
7FE0
F078
F078
E038
E000
E000
F000
7FC0
7FC0
1FE0
1FE0
0078
0038
0038
E038
F078
F078
7FE0
1FC0
1FC0
ENDCHAR
STARTCHAR 0161
ENCODING 353
SWIDTH 480 0
DWIDTH 12 0
BBX 10 21 1 0
BITMAP
3B00
3B00
1E00
1E00
0400
0000
0000
7F80
FFC0
FFC0
E000
E000
FF80
7FC0
7FC0
00C0
00C0
00C0
FFC0
7F80
7F80
ENDCHAR
STARTCHAR 0164
ENCODING 356
SWIDTH 480 0
DWIDTH 12 0
BBX 10 25 1 0
BITMAP
7380
1F00
1F00
FFC0
FFC0
FFC0
0C00
0C00
0C00
0C00
0C00
0C00
0C00
0C00
0C00
0C00
0C00
0C00
0C00
0C00
0C00
0C00
0C00
0C00
0C00
ENDCHAR
STARTCHAR 0165
ENCODING 357
SWIDTH 600 0
DWIDTH 15 0
BBX 13 22 1 0
BITMAP
0078
1878
1878
1878
1878
1838
1860
1860
FF80
FF80
FF80
1800
1800
1800
1800
1800
1800
1800
1800
1FC0
0FC0
0FC0
ENDCHAR
STARTCHAR 0166
ENCODING 358
SWIDTH 480 0
DWIDTH 12 0
BBX 10 22 1 0
BITMAP
FFC0
FFC0
FFC0
0C00
0C00
0C00
0C00
0C00
0C00
FFC0
FFC0
FFC0
FFC0
0C00
0C00
0C00
0C00
0C00
0C00
0C00
0C00
0C00
ENDCHAR
STARTCHAR 0167
ENCODING 359
SWIDTH 440 0
DWIDTH 11 0
BBX 10 21 1 0
BITMAP
1800
1800
1800
1800
1800
1800
1800
FF80
FF80
FF80
1800
1800
1800
FF80
FF80
1800
1800
1800
1FC0
0FC0
0FC0
ENDCHAR
STARTCHAR 0168
ENCODING 360
SWIDTH 600 0
DWIDTH 15 0
BBX 13 25 1 0
BITMAP
0E80
1B00
1B00
E038
E038
E038
E038
E038
E038
E038
E038
E038
E038
E038
E038
E038
E038
E038
E038
E038
7060
7060
7FE0
1FC0
1FC0
ENDCHAR
STARTCHAR 0169
ENCODING 361
SWIDTH 600 0
DWIDTH 15 0
BBX 13 19 1 0
BITMAP
0E80
0E80
1B00
0000
0000
E038
E038
E038
E038
E038
E038
E038
E038
E038
F078
F078
7FF8
1FB8
1FB8
ENDCHAR
STARTCHAR 016A
ENCODING 362
SWIDTH 600 0
DWIDTH 15 0
BBX 13 26 1 0
BITMAP
1FC0
1FC0
0000
0000
E038
E038
E038
E038
E038
E038
E038
E038
E038
E038
E038
E038
E038
E038
E038
E038
E038
7060
7060
7FE0
1FC0
1FC0
ENDCHAR
STARTCHAR 016B
ENCODING 363
SWIDTH 600 0
DWIDTH 15 0
BBX 13 18 1 0
BITMAP
1FC0
1FC0
0000
0000
E038
E038
E038
E038
E038
E038
E038
E038
E038
F078
F078
7FF8
1FB8
1FB8
ENDCHAR
STARTCHAR 016E
ENCODING 366
SWIDTH 600 0
DWIDTH 15 0
BBX 13 25 1 0
BITMAP
0F80
18C0
18C0
EFB8
E038
E038
E038
E038
E038
E038
E038
E038
E038
E038
E038
E038
E038
E038
E038
E038
7060
7060
7FE0
1FC0
1FC0
ENDCHAR
STARTCHAR 016F
ENCODING 367
SWIDTH 600 0
DWIDTH 15 0
BBX 13 21 1 0
BITMAP
0F80
0F80
18C0
18C0
0F80
0000
0000
E038
E038
E038
E038
E038
E038
E038
E038
E038
F078
F078
7FF8
1FB8
1FB8
ENDCHAR
STARTCHAR 0170
ENCODING 368
SWIDTH 600 0
DWIDTH 15 0
BBX 13 25 1 0
BITMAP
0F78
1CE0
1CE0
E038
E038
E038
E038
E038
E038
E038
E038
E038
E038
E038
E038
E038
E038
E038
E038
E038
7060
7060
7FE0
1FC0
1FC0
ENDCHAR
STARTCHAR 0171
ENCODING 369
SWIDTH 600 0
DWIDTH 15 0
BBX 14 21 1 0
BITMAP
07BC
07BC
0F78
0F78
1CE0
0000
0000
E038
E038
E038
E038
E038
E038
E038
E038
E038
F078
F078
7FF8
1FB8
1FB8
ENDCHAR
STARTCHAR 0172
ENCODING 370
SWIDTH 600 0
DWIDTH 15 0
BBX 13 27 1 -5
BITMAP
E038
E038
E038
E038
E038
E038
E038
E038
E038
E038
E038
E038
E038
E038
E038
E038
E038
7060
7060
7FE0
1FC0
1FC0
0700
0700
0780
0780
0780
ENDCHAR
STARTCHAR 0173
ENCODING 371
SWIDTH 600 0
DWIDTH 15 0
BBX 13 19 1 -5
BITMAP
E038
E038
E038
E038
E038
E038
E038
E038
E038
F078
F078
7FF8
1FB8
1FB8
0060
0060
0078
0078
0078
ENDCHAR
STARTCHAR 0174
ENCODING 372
SWIDTH 600 0
DWIDTH 15 0
BBX 13 25 1 0
BITMAP
0F80
18C0
18C0
E038
E038
E038
E038
E038
E038
E038
E038
E038
E038
E038
E738
E738
E738
EFB8
EFB8
F8F8
F078
F078
F078
E038
E038
ENDCHAR
STARTCHAR 0175
ENCODING 373
SWIDTH 600 0
DWIDTH 15 0
BBX 13 21 1 0
BITMAP
0200
0200
0700
0700
1D80
0000
0000
E738
E738
E738
E738
E738
E738
E738
E738
EFB8
7FE0
7FE0
78E0
1040
1040
ENDCHAR
STARTCHAR 0176
ENCODING 374
SWIDTH 600 0
DWIDTH 15 0
BBX 13 25 1 0
BITMAP
0700
1D80
1D80
E038
E038
E038
7060
7060
7060
18C0
18C0
18C0
0F80
0F80
0F80
0F80
0700
0700
0700
0700
0700
0700
0700
0700
0700
ENDCHAR
STARTCHAR 0177
ENCODING 375
SWIDTH 480 0
DWIDTH 12 0
BBX 10 24 1 -3
BITMAP
0400
0400
1E00
1E00
3B00
0000
0000
E0C0
E0C0
E0C0
7380
7380
7380
1F00
1F00
1F00
0C00
0C00
0C00
1800
1800
1800
1800
7000
ENDCHAR
STARTCHAR 0178
ENCODING 376
SWIDTH 600 0
DWIDTH 15 0
BBX 13 25 1 0
BITMAP
18C0
18C0
18C0
E038
E038
E038
7060
7060
7060
18C0
18C0
18C0
0F80
0F80
0F80
0F80
0700
0700
0700
0700
0700
0700
0700
0700
0700
ENDCHAR
STARTCHAR 0179
ENCODING 377
SWIDTH 600 0
DWIDTH 15 0
BBX 13 26 1 0
BITMAP
03C0
03C0
0780
0780
FFF8
FFF8
FFF8
0060
0060
0060
00C0
00C0
0380
0700
0700
0700
0700
0C00
1800
1800
7000
7000
7000
FFF8
FFF8
FFF8
ENDCHAR
STARTCHAR 017A
ENCODING 378
SWIDTH 560 0
DWIDTH 14 0
BBX 11 21 1 0
BITMAP
03C0
03C0
0780
0780
0F00
0000
0000
FFE0
FFC0
FFC0
0380
0380
0700
0C00
0C00
1800
7000
7000
FFE0
FFE0
FFE0
ENDCHAR
STARTCHAR 017B
ENCODING 379
SWIDTH 600 0
DWIDTH 15 0
BBX 13 25 1 0
BITMAP
0700
0700
0700
FFF8
FFF8
FFF8
0060
0060
0060
00C0
00C0
0380
0700
0700
0700
0700
0C00
1800
1800
7000
7000
7000
FFF8
FFF8
FFF8
ENDCHAR
STARTCHAR 017C
ENCODING 380
SWIDTH 560 0
DWIDTH 14 0
BBX 11 19 1 0
BITMAP
0600
0600
0600
0000
0000
FFE0
FFC0
FFC0
0380
0380
0700
0C00
0C00
1800
7000
7000
FFE0
FFE0
FFE0
ENDCHAR
STARTCHAR 017D
ENCODING 381
SWIDTH 600 0
DWIDTH 15 0
BBX 13 25 1 0
BITMAP
1D80
0700
0700
FFF8
FFF8
FFF8
0060
0060
0060
00C0
00C0
0380
0700
0700
0700
0700
0C00
1800
1800
7000
7000
7000
FFF8
FFF8
FFF8
ENDCHAR
STARTCHAR 017E
ENCODING 382
SWIDTH 560 0
DWIDTH 14 0
BBX 11 21 1 0
BITMAP
1B80
1B80
0F00
0F00
0400
0000
0000
FFE0
FFC0
FFC0
0380
0380
0700
0C00
0C00
1800
7000
7000
FFE0
FFE0
FFE0
ENDCHAR
STARTCHAR 018E
ENCODING 398
SWIDTH 600 0
DWIDTH 15 0
BBX 13 22 1 0
BITMAP
FFF8
FFF8
FFF8
0038
0038
0038
0038
0038
0038
1FF8
1FF8
1FF8
1FF8
0038
0038
0038
0038
0038
0038
FFF8
FFF8
FFF8
ENDCHAR
STARTCHAR 018F
ENCODING 399
SWIDTH 600 0
DWIDTH 15 0
BBX 13 22 1 0
BITMAP
1F80
7FC0
7FC0
F0E0
F0E0
E060
0038
0038
0038
FFF8
FFF8
FFF8
FFF8
E038
E038
E038
7060
78E0
78E0
1FC0
0F80
0F80
ENDCHAR
STARTCHAR 0192
ENCODING 402
SWIDTH 480 0
DWIDTH 12 0
BBX 12 25 0 -3
BITMAP
01F0
03F0
03F0
0780
0780
0600
0600
0600
0600
3FE0
3FE0
3FE0
3FE0
0600
0600
0600
0600
0600
0600
0600
C600
C600
FE00
FE00
7C00
ENDCHAR
STARTCHAR 0194
ENCODING 404
SWIDTH 600 0
DWIDTH 15 0
BBX 13 27 1 -5
BITMAP
E038
E038
E038
E038
E038
7060
7060
7060
7060
18C0
18C0
18C0
18C0
18C0
0F80
0F80
0F80
0F80
0F80
0F80
18C0
18C0
18C0
18C0
18C0
0F80
0F80
ENDCHAR
STARTCHAR 019D
ENCODING 413
SWIDTH 600 0
DWIDTH 15 0
BBX 16 25 -2 -3
BITMAP
1C07
1E07
1E07
1E07
1E07
1F07
1D87
1D87
1D87
1CE7
1CE7
1CE7
1CE7
1C77
1C77
1C77
1C1F
1C0F
1C0F
1C0F
1C07
1C07
FC00
FC00
F000
ENDCHAR
STARTCHAR 01DD
ENCODING 477
SWIDTH 600 0
DWIDTH 15 0
BBX 13 14 1 0
BITMAP
1FC0
7FE0
7FE0
0078
0078
0038
7FF8
7FF8
FFF8
FFF8
E078
7FE0
1FC0
1FC0
ENDCHAR
STARTCHAR 01E6
ENCODING 486
SWIDTH 600 0
DWIDTH 15 0
BBX 13 25 1 0
BITMAP
0CC0
0780
0780
0FE0
1FF8
1FF8
7838
7838
7000
E000
E000
E000
E3F8
E3F8
E3F8
E3F8
E038
E038
E038
7038
7838
7838
1FF8
0FF8
0FF8
ENDCHAR
STARTCHAR 01E7
ENCODING 487
SWIDTH 600 0
DWIDTH 15 0
BBX 13 24 1 -3
BITMAP
0CC0
0CC0
0780
0780
0300
0000
0000
1FF8
7FF8
7FF8
F038
F038
E038
F078
F078
7FF8
1FB8
1FB8
0038
0078
0078
7FE0
7FE0
7FC0
ENDCHAR
STARTCHAR 01F4
ENCODING 500
SWIDTH 600 0
DWIDTH 15 0
BBX 13 26 1 0
BITMAP
03C0
03C0
0780
0780
0FE0
1FF8
1FF8
7838
7838
7000
E000
E000
E000
E3F8
E3F8
E3F8
E3F8
E038
E038
E038
7038
7838
7838
1FF8
0FF8
0FF8
ENDCHAR
STARTCHAR 01F5
ENCODING 501
SWIDTH 600 0
DWIDTH 15 0
BBX 13 24 1 -3
BITMAP
03C0
03C0
0780
0780
0F00
0000
0000
1FF8
7FF8
7FF8
F038
F038
E038
F078
F078
7FF8
1FB8
1FB8
0038
0078
0078
7FE0
7FE0
7FC0
ENDCHAR
STARTCHAR 01F8
ENCODING 504
SWIDTH 600 0
DWIDTH 15 0
BBX 13 25 1 0
BITMAP
1C00
0F00
0F00
E038
F038
F038
F038
F038
F838
EC38
EC38
EC38
E738
E738
E738
E738
E3B8
E3B8
E3B8
E0F8
E078
E078
E078
E038
E038
ENDCHAR
STARTCHAR 01F9
ENCODING 505
SWIDTH 560 0
DWIDTH 14 0
BBX 11 21 1 0
BITMAP
7800
7800
1C00
1C00
0F00
0F00
0000
FF80
FFC0
FFC0
E0E0
E0E0
E060
E060
E060
E060
E060
E060
E060
E060
E060
ENDCHAR
STARTCHAR 0218
ENCODING 536
SWIDTH 600 0
DWIDTH 15 0
BBX 13 27 1 -5
BITMAP
1FC0
7FE0
7FE0
F078
F078
E038
E000
E000
F000
7FC0
7FC0
1FE0
1FE0
0078
0038
0038
E038
F078
F078
7FE0
1FC0
1FC0
0700
0700
0700
0C00
0C00
ENDCHAR
STARTCHAR 0219
ENCODING 537
SWIDTH 480 0
DWIDTH 12 0
BBX 10 19 1 -5
BITMAP
7F80
FFC0
FFC0
E000
E000
FF80
7FC0
7FC0
00C0
00C0
00C0
FFC0
7F80
7F80
0C00
0C00
0C00
1800
1800
ENDCHAR
STARTCHAR 021A
ENCODING 538
SWIDTH 480 0
DWIDTH 12 0
BBX 10 27 1 -5
BITMAP
FFC0
FFC0
FFC0
0C00
0C00
0C00
0C00
0C00
0C00
0C00
0C00
0C00
0C00
0C00
0C00
0C00
0C00
0C00
0C00
0C00
0C00
0C00
0C00
0C00
0C00
1800
1800
ENDCHAR
STARTCHAR 021B
ENCODING 539
SWIDTH 440 0
DWIDTH 11 0
BBX 10 26 1 -5
BITMAP
1800
1800
1800
1800
1800
1800
1800
FF80
FF80
FF80
1800
1800
1800
1800
1800
1800
1800
1800
1FC0
0FC0
0FC0
0C00
0C00
0C00
1800
1800
ENDCHAR
STARTCHAR 0241
ENCODING 577
SWIDTH 600 0
DWIDTH 15 0
BBX 13 22 1 0
BITMAP
1FC0
7FE0
7FE0
F078
F078
E038
E078
E078
00E0
03C0
03C0
0780
0780
0700
0700
0700
0700
0700
0700
0700
0700
0700
ENDCHAR
STARTCHAR 0242
ENCODING 578
SWIDTH 600 0
DWIDTH 15 0
BBX 13 14 1 0
BITMAP
1FC0
7FE0
7FE0
F078
F078
E038
E078
E078
00E0
03C0
03C0
0780
0700
0700
ENDCHAR
STARTCHAR 024C
ENCODING 588
SWIDTH 640 0
DWIDTH 16 0
BBX 15 22 0 0
BITMAP
3FF0
3FFC
3FFC
381E
381E
380E
380E
380E
380E
380E
381E
FFFC
FFFC
FFF0
39E0
39E0
3870
383C
383C
381E
380E
380E
ENDCHAR
STARTCHAR 024D
ENCODING 589
SWIDTH 480 0
DWIDTH 12 0
BBX 12 14 0 0
BITMAP
77E0
7FF0
7FF0
7830
7830
7000
FFE0
FFE0
7000
7000
7000
7000
7000
7000
ENDCHAR
STARTCHAR 0263
ENCODING 611
SWIDTH 600 0
DWIDTH 15 0
BBX 13 19 1 -5
BITMAP
E038
E038
E038
7060
7060
7060
18C0
18C0
18C0
0F80
0F80
0F80
18C0
18C0
18C0
18C0
18C0
0F80
0F80
ENDCHAR
STARTCHAR 0272
ENCODING 626
SWIDTH 560 0
DWIDTH 14 0
BBX 14 17 -2 -3
BITMAP
1FF0
1FF8
1FF8
1C1C
1C1C
1C0C
1C0C
1C0C
1C0C
1C0C
1C0C
1C0C
1C0C
1C0C
FC00
FC00
F000
ENDCHAR
STARTCHAR 02C6
ENCODING 710
SWIDTH 360 0
DWIDTH 9 0
BBX 6 5 1 16
BITMAP
10
10
78
78
EC
ENDCHAR
STARTCHAR 02C7
ENCODING 711
SWIDTH 360 0
DWIDTH 9 0
BBX 6 5 1 16
BITMAP
EC
EC
78
78
10
ENDCHAR
STARTCHAR 02D8
ENCODING 728
SWIDTH 400 0
DWIDTH 10 0
BBX 7 5 2 16
BITMAP
EE
EE
EE
EE
38
ENDCHAR
STARTCHAR 02D9
ENCODING 729
SWIDTH 200 0
DWIDTH 5 0
BBX 3 3 1 16
BITMAP
E0
E0
E0
ENDCHAR
STARTCHAR 02DA
ENCODING 730
SWIDTH 360 0
DWIDTH 9 0
BBX 6 5 1 16
BITMAP
78
78
EC
EC
78
ENDCHAR
STARTCHAR 02DB
ENCODING 731
SWIDTH 280 0
DWIDTH 7 0
BBX 4 5 2 -5
BITMAP
E0
E0
F0
F0
F0
ENDCHAR
STARTCHAR 02DC
ENCODING 732
SWIDTH 400 0
DWIDTH 10 0
BBX 7 3 2 16
BITMAP
36
36
D8
ENDCHAR
STARTCHAR 02DD
ENCODING 733
SWIDTH 600 0
DWIDTH 15 0
BBX 11 5 1 16
BITMAP
1CE0
1CE0
7BC0
7BC0
F780
ENDCHAR
STARTCHAR 0300
ENCODING 768
SWIDTH 0 0
DWIDTH 0 0
BBX 6 6 -11 15
BITMAP
F0
F0
78
78
3C
3C
ENDCHAR
STARTCHAR 0301
ENCODING 769
SWIDTH 0 0
DWIDTH 0 0
BBX 7 5 -9 16
BITMAP
1E
1E
38
38
F0
ENDCHAR
STARTCHAR 0302
ENCODING 770
SWIDTH 0 0
DWIDTH 0 0
BBX 6 5 -10 16
BITMAP
10
10
78
78
EC
ENDCHAR
STARTCHAR 0303
ENCODING 771
SWIDTH 0 0
DWIDTH 0 0
BBX 6 3 -10 16
BITMAP
74
74
98
ENDCHAR
STARTCHAR 0304
ENCODING 772
SWIDTH 0 0
DWIDTH 0 0
BBX 6 2 -10 15
BITMAP
FC
FC
ENDCHAR
STARTCHAR 0306
ENCODING 774
SWIDTH 0 0
DWIDTH 0 0
BBX 6 5 -10 16
BITMAP
EC
EC
EC
EC
78
ENDCHAR
STARTCHAR 0307
ENCODING 775
SWIDTH 0 0
DWIDTH 0 0
BBX 2 3 -8 16
BITMAP
C0
C0
C0
ENDCHAR
STARTCHAR 0308
ENCODING 776
SWIDTH 0 0
DWIDTH 0 0
BBX 7 3 -10 16
BITMAP
CE
CE
CE
ENDCHAR
STARTCHAR 030A
ENCODING 778
SWIDTH 0 0
DWIDTH 0 0
BBX 7 5 -10 16
BITMAP
7C
7C
CE
CE
7C
ENDCHAR
STARTCHAR 030B
ENCODING 779
SWIDTH 0 0
DWIDTH 0 0
BBX 11 5 -12 16
BITMAP
3DE0
3DE0
7BC0
7BC0
E700
ENDCHAR
STARTCHAR 030C
ENCODING 780
SWIDTH 0 0
DWIDTH 0 0
BBX 6 5 -10 16
BITMAP
EC
EC
78
78
10
ENDCHAR
STARTCHAR 0313
ENCODING 787
SWIDTH 0 0
DWIDTH 0 0
BBX 4 6 -9 16
BITMAP
30
E0
E0
F0
F0
F0
ENDCHAR
STARTCHAR 0323
ENCODING 803
SWIDTH 0 0
DWIDTH 0 0
BBX 2 3 -8 -5
BITMAP
C0
C0
C0
ENDCHAR
STARTCHAR 0326
ENCODING 806
SWIDTH 0 0
DWIDTH 0 0
BBX 4 5 -9 -5
BITMAP
30
30
30
E0
E0
ENDCHAR
STARTCHAR 0327
ENCODING 807
SWIDTH 0 0
DWIDTH 0 0
BBX 4 5 -9 -5
BITMAP
30
30
30
E0
E0
ENDCHAR
STARTCHAR 0328
ENCODING 808
SWIDTH 0 0
DWIDTH 0 0
BBX 4 5 -9 -5
BITMAP
E0
E0
F0
F0
F0
ENDCHAR
STARTCHAR 032D
ENCODING 813
SWIDTH 0 0
DWIDTH 0 0
BBX 6 3 -10 -5
BITMAP
78
EC
EC
ENDCHAR
STARTCHAR 0394
ENCODING 916
SWIDTH 600 0
DWIDTH 15 0
BBX 13 22 1 0
BITMAP
0700
0700
0700
0F80
0F80
0F80
0F80
0F80
18C0
18C0
18C0
18C0
18C0
7060
7060
7060
7060
E038
E038
FFF8
FFF8
FFF8
ENDCHAR
STARTCHAR 03A9
ENCODING 937
SWIDTH 600 0
DWIDTH 15 0
BBX 13 22 1 0
BITMAP
0F80
1FC0
1FC0
78E0
78E0
7060
E038
E038
E038
E038
E038
E038
E038
E038
E038
E038
7060
18C0
18C0
F8F8
F8F8
F8F8
ENDCHAR
STARTCHAR 03BC
ENCODING 956
SWIDTH 560 0
DWIDTH 14 0
BBX 13 17 1 -3
BITMAP
E060
E060
E060
E060
E060
E060
E060
E060
E060
F0E0
F0E0
FFE0
EF38
EF38
E000
E000
E000
ENDCHAR
STARTCHAR 03C0
ENCODING 960
SWIDTH 640 0
DWIDTH 16 0
BBX 15 14 0 0
BITMAP
FFFE
FFFE
FFFE
3830
3830
3830
3830
3830
3830
3830
3830
3830
381C
381C
ENDCHAR
STARTCHAR 058F
ENCODING 1423
SWIDTH 600 0
DWIDTH 15 0
BBX 13 22 1 0
BITMAP
1F80
7FC0
7FC0
70C0
70C0
E060
E060
E060
0060
0FF8
0FF8
0FF8
0FF8
0060
0060
0060
0FF8
0FF8
0FF8
0060
0060
0060
ENDCHAR
STARTCHAR 1E12
ENCODING 7698
SWIDTH 600 0
DWIDTH 15 0
BBX 13 25 1 -3
BITMAP
FF80
FFC0
FFC0
E0E0
E0E0
E060
E038
E038
E038
E038
E038
E038
E038
E038
E038
E038
E060
E0E0
E0E0
FFC0
FF80
FF80
0F00
0F00
1B80
ENDCHAR
STARTCHAR 1E13
ENCODING 7699
SWIDTH 600 0
DWIDTH 15 0
BBX 13 25 1 -3
BITMAP
0038
0038
0038
0038
0038
0038
0038
0038
1FB8
7FF8
7FF8
F0F8
F0F8
E038
E038
E038
E038
F038
F038
7FF8
1FF8
1FF8
0780
0780
0CC0
ENDCHAR
STARTCHAR 1E24
ENCODING 7716
SWIDTH 600 0
DWIDTH 15 0
BBX 13 27 1 -5
BITMAP
E038
E038
E038
E038
E038
E038
E038
E038
E038
FFF8
FFF8
FFF8
FFF8
E038
E038
E038
E038
E038
E038
E038
E038
E038
0000
0000
0700
0700
0700
ENDCHAR
STARTCHAR 1E25
ENCODING 7717
SWIDTH 560 0
DWIDTH 14 0
BBX 11 27 1 -5
BITMAP
E000
E000
E000
E000
E000
E000
E000
E000
EF80
FFC0
FFC0
F0E0
F0E0
E060
E060
E060
E060
E060
E060
E060
E060
E060
0000
0000
0600
0600
0600
ENDCHAR
STARTCHAR 1E3C
ENCODING 7740
SWIDTH 560 0
DWIDTH 14 0
BBX 13 27 1 -5
BITMAP
E000
E000
E000
E000
E000
E000
E000
E000
E000
E000
E000
E000
E000
E000
E000
E000
E000
E000
E000
FFF8
FFF8
FFF8
0000
0000
0780
0CC0
0CC0
ENDCHAR
STARTCHAR 1E3D
ENCODING 7741
SWIDTH 360 0
DWIDTH 9 0
BBX 8 27 1 -5
BITMAP
78
78
78
18
18
18
18
18
18
18
18
18
18
18
18
18
18
18
18
FF
FF
FF
00
00
3C
66
66
ENDCHAR
STARTCHAR 1E44
ENCODING 7748
SWIDTH 600 0
DWIDTH 15 0
BBX 13 25 1 0
BITMAP
0700
0700
0700
E038
F038
F038
F038
F038
F838
EC38
EC38
EC38
E738
E738
E738
E738
E3B8
E3B8
E3B8
E0F8
E078
E078
E078
E038
E038
ENDCHAR
STARTCHAR 1E45
ENCODING 7749
SWIDTH 560 0
DWIDTH 14 0
BBX 11 19 1 0
BITMAP
0C00
0C00
0C00
0000
0000
FF80
FFC0
FFC0
E0E0
E0E0
E060
E060
E060
E060
E060
E060
E060
E060
E060
ENDCHAR
STARTCHAR 1E4A
ENCODING 7754
SWIDTH 600 0
DWIDTH 15 0
BBX 13 27 1 -5
BITMAP
E038
F038
F038
F038
F038
F838
EC38
EC38
EC38
E738
E738
E738
E738
E3B8
E3B8
E3B8
E0F8
E078
E078
E078
E038
E038
0000
0000
0780
0CC0
0CC0
ENDCHAR
STARTCHAR 1E4B
ENCODING 7755
SWIDTH 560 0
DWIDTH 14 0
BBX 11 19 1 -5
BITMAP
FF80
FFC0
FFC0
E0E0
E0E0
E060
E060
E060
E060
E060
E060
E060
E060
E060
0000
0000
0F00
1B80
1B80
ENDCHAR
STARTCHAR 1E5A
ENCODING 7770
SWIDTH 600 0
DWIDTH 15 0
BBX 13 27 1 -5
BITMAP
FFC0
FFE0
FFE0
E078
E078
E038
E038
E038
E038
E038
E078
FFE0
FFE0
FFC0
E780
E780
E3C0
E0E0
E0E0
E078
E038
E038
0000
0000
0700
0700
0700
ENDCHAR
STARTCHAR 1E5B
ENCODING 7771
SWIDTH 480 0
DWIDTH 12 0
BBX 11 19 1 -5
BITMAP
EFC0
FFE0
FFE0
F060
F060
E000
E000
E000
E000
E000
E000
E000
E000
E000
0000
0000
E000
E000
E000
ENDCHAR
STARTCHAR 1E62
ENCODING 7778
SWIDTH 600 0
DWIDTH 15 0
BBX 13 27 1 -5
BITMAP
1FC0
7FE0
7FE0
F078
F078
E038
E000
E000
F000
7FC0
7FC0
1FE0
1FE0
0078
0038
0038
E038
F078
F078
7FE0
1FC0
1FC0
0000
0000
0700
0700
0700
ENDCHAR
STARTCHAR 1E63
ENCODING 7779
SWIDTH 480 0
DWIDTH 12 0
BBX 10 19 1 -5
BITMAP
7F80
FFC0
FFC0
E000
E000
FF80
7FC0
7FC0
00C0
00C0
00C0
FFC0
7F80
7F80
0000
0000
0C00
0C00
0C00
ENDCHAR
STARTCHAR 1E6C
ENCODING 7788
SWIDTH 480 0
DWIDTH 12 0
BBX 10 27 1 -5
BITMAP
FFC0
FFC0
FFC0
0C00
0C00
0C00
0C00
0C00
0C00
0C00
0C00
0C00
0C00
0C00
0C00
0C00
0C00
0C00
0C00
0C00
0C00
0C00
0000
0000
0C00
0C00
0C00
ENDCHAR
STARTCHAR 1E6D
ENCODING 7789
SWIDTH 440 0
DWIDTH 11 0
BBX 10 26 1 -5
BITMAP
1800
1800
1800
1800
1800
1800
1800
FF80
FF80
FF80
1800
1800
1800
1800
1800
1800
1800
1800
1FC0
0FC0
0FC0
0000
0000
0C00
0C00
0C00
ENDCHAR
STARTCHAR 1E80
ENCODING 7808
SWIDTH 600 0
DWIDTH 15 0
BBX 13 25 1 0
BITMAP
1C00
0F00
0F00
E038
E038
E038
E038
E038
E038
E038
E038
E038
E038
E038
E738
E738
E738
EFB8
EFB8
F8F8
F078
F078
F078
E038
E038
ENDCHAR
STARTCHAR 1E81
ENCODING 7809
SWIDTH 600 0
DWIDTH 15 0
BBX 13 21 1 0
BITMAP
7800
7800
1C00
1C00
0F00
0F00
0000
E738
E738
E738
E738
E738
E738
E738
E738
EFB8
7FE0
7FE0
78E0
1040
1040
ENDCHAR
STARTCHAR 1E82
ENCODING 7810
SWIDTH 600 0
DWIDTH 15 0
BBX 13 26 1 0
BITMAP
03C0
03C0
0780
0780
E038
E038
E038
E038
E038
E038
E038
E038
E038
E038
E038
E738
E738
E738
EFB8
EFB8
F8F8
F078
F078
F078
E038
E038
ENDCHAR
STARTCHAR 1E83
ENCODING 7811
SWIDTH 600 0
DWIDTH 15 0
BBX 13 21 1 0
BITMAP
00E0
00E0
03C0
03C0
0780
0000
0000
E738
E738
E738
E738
E738
E738
E738
E738
EFB8
7FE0
7FE0
78E0
1040
1040
ENDCHAR
STARTCHAR 1E84
ENCODING 7812
SWIDTH 600 0
DWIDTH 15 0
BBX 13 25 1 0
BITMAP
18C0
18C0
0000
E038
E038
E038
E038
E038
E038
E038
E038
E038
E038
E038
E738
E738
E738
EFB8
EFB8
F8F8
F078
F078
F078
E038
E038
ENDCHAR
STARTCHAR 1E85
ENCODING 7813
SWIDTH 600 0
DWIDTH 15 0
BBX 13 19 1 0
BITMAP
18C0
18C0
18C0
0000
0000
E738
E738
E738
E738
E738
E738
E738
E738
EFB8
7FE0
7FE0
78E0
1040
1040
ENDCHAR
STARTCHAR 1E92
ENCODING 7826
SWIDTH 600 0
DWIDTH 15 0
BBX 13 27 1 -5
BITMAP
FFF8
FFF8
FFF8
0060
0060
0060
00C0
00C0
0380
0700
0700
0700
0700
0C00
1800
1800
7000
7000
7000
FFF8
FFF8
FFF8
0000
0000
0700
0700
0700
ENDCHAR
STARTCHAR 1E93
ENCODING 7827
SWIDTH 560 0
DWIDTH 14 0
BBX 11 19 1 -5
BITMAP
FFE0
FFC0
FFC0
0380
0380
0700
0C00
0C00
1800
7000
7000
FFE0
FFE0
FFE0
0000
0000
0600
0600
0600
ENDCHAR
STARTCHAR 1E9E
ENCODING 7838
SWIDTH 680 0
DWIDTH 17 0
BBX 15 22 1 0
BITMAP
1FFE
7FFE
7FFE
F03C
F03C
E078
E0E0
E0E0
E3C0
E7F8
E7F8
E7FC
E7FC
E01E
E006
E006
E006
E01E
E01E
E7FC
E7F8
E7F8
ENDCHAR
STARTCHAR 1EF2
ENCODING 7922
SWIDTH 600 0
DWIDTH 15 0
BBX 13 25 1 0
BITMAP
1C00
0F00
0F00
E038
E038
E038
7060
7060
7060
18C0
18C0
18C0
0F80
0F80
0F80
0F80
0700
0700
0700
0700
0700
0700
0700
0700
0700
ENDCHAR
STARTCHAR 1EF3
ENCODING 7923
SWIDTH 480 0
DWIDTH 12 0
BBX 10 24 1 -3
BITMAP
F000
F000
3800
3800
1E00
1E00
0000
E0C0
E0C0
E0C0
7380
7380
7380
1F00
1F00
1F00
0C00
0C00
0C00
1800
1800
1800
1800
7000
ENDCHAR
STARTCHAR 200B
ENCODING 8203
SWIDTH 0 0
DWIDTH 0 0
BBX 0 0 0 0
BITMAP
ENDCHAR
STARTCHAR 2010
ENCODING 8208
SWIDTH 480 0
DWIDTH 12 0
BBX 10 3 1 8
BITMAP
FFC0
FFC0
FFC0
ENDCHAR
STARTCHAR 2013
ENCODING 8211
SWIDTH 560 0
DWIDTH 14 0
BBX 14 3 0 8
BITMAP
FFFC
FFFC
FFFC
ENDCHAR
STARTCHAR 2014
ENCODING 8212
SWIDTH 680 0
DWIDTH 17 0
BBX 17 3 0 8
BITMAP
FFFF80
FFFF80
FFFF80
ENDCHAR
STARTCHAR 2018
ENCODING 8216
SWIDTH 240 0
DWIDTH 6 0
BBX 4 8 1 14
BITMAP
70
E0
E0
F0
F0
F0
F0
F0
ENDCHAR
STARTCHAR 2019
ENCODING 8217
SWIDTH 240 0
DWIDTH 6 0
BBX 4 8 1 14
BITMAP
F0
F0
F0
F0
F0
70
E0
E0
ENDCHAR
STARTCHAR 201A
ENCODING 8218
SWIDTH 240 0
DWIDTH 6 0
BBX 4 8 1 -3
BITMAP
F0
F0
F0
F0
F0
70
70
E0
ENDCHAR
STARTCHAR 201C
ENCODING 8220
SWIDTH 440 0
DWIDTH 11 0
BBX 9 8 1 14
BITMAP
7380
E700
E700
F780
F780
F780
F780
F780
ENDCHAR
STARTCHAR 201D
ENCODING 8221
SWIDTH 440 0
DWIDTH 11 0
BBX 9 8 1 14
BITMAP
F780
F780
F780
F780
F780
7380
E700
E700
ENDCHAR
STARTCHAR 201E
ENCODING 8222
SWIDTH 440 0
DWIDTH 11 0
BBX 9 8 1 -3
BITMAP
F780
F780
F780
F780
F780
7380
7380
E700
ENDCHAR
STARTCHAR 2020
ENCODING 8224
SWIDTH 480 0
DWIDTH 12 0
BBX 10 19 1 3
BITMAP
0C00
0C00
0C00
0C00
0C00
FFC0
FFC0
FFC0
0C00
0C00
0C00
0C00
0C00
0C00
0C00
0C00
0C00
0C00
0C00
ENDCHAR
STARTCHAR 2021
ENCODING 8225
SWIDTH 480 0
DWIDTH 12 0
BBX 10 22 1 0
BITMAP
0C00
0C00
0C00
0C00
0C00
FFC0
FFC0
FFC0
0C00
0C00
0C00
0C00
0C00
0C00
FFC0
FFC0
FFC0
0C00
0C00
0C00
0C00
0C00
ENDCHAR
STARTCHAR 2022
ENCODING 8226
SWIDTH 360 0
DWIDTH 9 0
BBX 6 6 1 7
BITMAP
FC
FC
FC
FC
FC
FC
ENDCHAR
STARTCHAR 2026
ENCODING 8230
SWIDTH 640 0
DWIDTH 16 0
BBX 14 5 1 0
BITMAP
F7BC
F7BC
F7BC
F7BC
F7BC
ENDCHAR
STARTCHAR 2030
ENCODING 8240
SWIDTH 600 0
DWIDTH 15 0
BBX 14 21 1 0
BITMAP
F01C
F01C
F03C
F03C
F078
00E0
00E0
03C0
0780
0780
0F00
0F00
1C00
7800
7800
F000
E7BC
E7BC
07BC
07BC
07BC
ENDCHAR
STARTCHAR 2032
ENCODING 8242
SWIDTH 360 0
DWIDTH 9 0
BBX 6 8 1 14
BITMAP
0C
1C
1C
78
78
F0
E0
E0
ENDCHAR
STARTCHAR 2033
ENCODING 8243
SWIDTH 560 0
DWIDTH 14 0
BBX 11 8 1 14
BITMAP
0C60
1CE0
1CE0
7BC0
7BC0
F780
E700
E700
ENDCHAR
STARTCHAR 2039
ENCODING 8249
SWIDTH 360 0
DWIDTH 9 0
BBX 6 13 1 4
BITMAP
0C
1C
1C
78
F0
F0
F0
F0
78
1C
1C
0C
0C
ENDCHAR
STARTCHAR 203A
ENCODING 8250
SWIDTH 360 0
DWIDTH 9 0
BBX 6 12 1 5
BITMAP
E0
F0
F0
78
1C
1C
1C
1C
78
F0
F0
E0
ENDCHAR
STARTCHAR 2044
ENCODING 8260
SWIDTH 200 0
DWIDTH 5 0
BBX 14 19 -5 2
BITMAP
000C
000C
001C
001C
003C
0070
0070
01E0
03C0
03C0
0780
0780
0E00
1C00
1C00
7800
F000
F000
E000
ENDCHAR
STARTCHAR 2070
ENCODING 8304
SWIDTH 440 0
DWIDTH 11 0
BBX 9 13 1 9
BITMAP
7F00
FF80
FF80
E380
E380
E380
E380
E380
E380
FF80
FF80
7F00
7F00
ENDCHAR
STARTCHAR 2074
ENCODING 8308
SWIDTH 360 0
DWIDTH 9 0
BBX 9 13 1 9
BITMAP
0700
0F00
0F00
1F00
1F00
7700
FF80
FF80
FF80
0700
0700
0700
0700
ENDCHAR
STARTCHAR 2075
ENCODING 8309
SWIDTH 440 0
DWIDTH 11 0
BBX 9 13 1 9
BITMAP
FF80
FF80
FF80
E000
E000
FF00
FF80
FF80
0380
0380
FF80
7F00
7F00
ENDCHAR
STARTCHAR 2076
ENCODING 8310
SWIDTH 440 0
DWIDTH 11 0
BBX 9 13 1 9
BITMAP
0F00
0F00
1F00
7800
7800
FF00
FF80
FF80
E380
E380
FF80
7F00
7F00
ENDCHAR
STARTCHAR 2077
ENCODING 8311
SWIDTH 440 0
DWIDTH 11 0
BBX 9 12 1 10
BITMAP
FF80
FF80
FF80
0700
0700
0700
0C00
0C00
0C00
1800
1800
1800
ENDCHAR
STARTCHAR 2078
ENCODING 8312
SWIDTH 440 0
DWIDTH 11 0
BBX 9 13 1 9
BITMAP
7F00
FF80
FF80
E380
E380
7F00
7F00
7F00
E380
E380
FF80
7F00
7F00
ENDCHAR
STARTCHAR 2079
ENCODING 8313
SWIDTH 440 0
DWIDTH 11 0
BBX 9 13 1 9
BITMAP
7F00
FF80
FF80
E380
E380
FF80
7F80
7F80
0F00
7C00
7C00
7800
7800
ENDCHAR
STARTCHAR 2080
ENCODING 8320
SWIDTH 440 0
DWIDTH 11 0
BBX 9 13 1 0
BITMAP
7F00
7F00
FF80
FF80
E380
E380
E380
E380
E380
E380
FF80
7F00
7F00
ENDCHAR
STARTCHAR 2081
ENCODING 8321
SWIDTH 400 0
DWIDTH 10 0
BBX 8 13 1 0
BITMAP
18
18
F8
F8
F8
18
18
18
18
18
FF
FF
FF
ENDCHAR
STARTCHAR 2082
ENCODING 8322
SWIDTH 360 0
DWIDTH 9 0
BBX 9 13 1 0
BITMAP
7F00
7F00
FF80
FF80
E380
0780
0780
0F00
1C00
1C00
7F80
FF80
FF80
ENDCHAR
STARTCHAR 2083
ENCODING 8323
SWIDTH 440 0
DWIDTH 11 0
BBX 9 13 1 0
BITMAP
7F00
7F00
FF80
FF80
E380
0F00
0F00
0F00
E380
E380
FF80
7F00
7F00
ENDCHAR
STARTCHAR 2084
ENCODING 8324
SWIDTH 360 0
DWIDTH 9 0
BBX 9 13 1 0
BITMAP
0700
0700
0F00
0F00
1F00
7700
7700
FF80
FF80
FF80
0700
0700
0700
ENDCHAR
STARTCHAR 2085
ENCODING 8325
SWIDTH 440 0
DWIDTH 11 0
BBX 9 13 1 0
BITMAP
FF80
FF80
FF80
FF80
E000
FF00
FF00
FF80
0380
0380
FF80
7F00
7F00
ENDCHAR
STARTCHAR 2086
ENCODING 8326
SWIDTH 440 0
DWIDTH 11 0
BBX 9 13 1 0
BITMAP
0F00
0F00
1F00
1F00
7800
FF00
FF00
FF80
E380
E380
FF80
7F00
7F00
ENDCHAR
STARTCHAR 2087
ENCODING 8327
SWIDTH 440 0
DWIDTH 11 0
BBX 9 13 1 0
BITMAP
FF80
FF80
FF80
FF80
0700
0700
0700
0C00
0C00
0C00
1800
1800
1800
ENDCHAR
STARTCHAR 2088
ENCODING 8328
SWIDTH 440 0
DWIDTH 11 0
BBX 9 13 1 0
BITMAP
7F00
7F00
FF80
FF80
E380
7F00
7F00
7F00
E380
E380
FF80
7F00
7F00
ENDCHAR
STARTCHAR 2089
ENCODING 8329
SWIDTH 440 0
DWIDTH 11 0
BBX 9 13 1 0
BITMAP
7F00
7F00
FF80
FF80
E380
FF80
FF80
7F80
0F00
0F00
7C00
7800
7800
ENDCHAR
STARTCHAR 20A9
ENCODING 8361
SWIDTH 600 0
DWIDTH 15 0
BBX 15 22 0 0
BITMAP
701C
701C
701C
FFFE
FFFE
FFFE
701C
701C
FFFE
FFFE
FFFE
739C
739C
739C
77DC
77DC
7C7C
783C
783C
783C
701C
701C
ENDCHAR
STARTCHAR 20AA
ENCODING 8362
SWIDTH 640 0
DWIDTH 16 0
BBX 14 17 1 0
BITMAP
FF1C
FF9C
FF9C
E3DC
ECDC
ECDC
ECDC
ECDC
ECDC
ECDC
ECDC
ECDC
EF1C
EF1C
E7FC
E3FC
E3FC
ENDCHAR
STARTCHAR 20AB
ENCODING 8363
SWIDTH 600 0
DWIDTH 15 0
BBX 14 22 1 0
BITMAP
0038
0038
0038
0038
0038
1FFC
0038
0038
1FB8
7FF8
7FF8
F0F8
F0F8
E038
E038
E038
E038
F038
F038
7FF8
1FF8
1FF8
ENDCHAR
STARTCHAR 20AC
ENCODING 8364
SWIDTH 600 0
DWIDTH 15 0
BBX 13 22 1 0
BITMAP
0FC0
1FE0
1FE0
7878
7878
7038
E000
E000
FFC0
E000
E000
E000
E000
FFC0
E000
E000
7038
7878
7878
1FE0
0FC0
0FC0
ENDCHAR
STARTCHAR 20AD
ENCODING 8365
SWIDTH 600 0
DWIDTH 15 0
BBX 14 22 0 0
BITMAP
701C
703C
703C
7070
7070
71E0
73C0
73C0
7780
FFFC
FFFC
FFFC
FFFC
7780
73C0
73C0
71E0
7070
7070
703C
701C
701C
ENDCHAR
STARTCHAR 20AE
ENCODING 8366
SWIDTH 480 0
DWIDTH 12 0
BBX 10 22 1 0
BITMAP
FFC0
FFC0
FFC0
0C40
0C40
0CC0
0F80
0F80
0F00
1C40
1C40
7CC0
7CC0
EF80
8F00
8F00
1C00
7C00
7C00
EC00
8C00
8C00
ENDCHAR
STARTCHAR 20B1
ENCODING 8369
SWIDTH 680 0
DWIDTH 17 0
BBX 15 22 1 0
BITMAP
1FC0
1FE0
1FE0
1878
1878
FFFE
FFFE
FFFE
1838
FFFE
FFFE
FFFE
FFFE
1878
1FE0
1FE0
1FC0
1800
1800
1800
1800
1800
ENDCHAR
STARTCHAR 20B2
ENCODING 8370
SWIDTH 600 0
DWIDTH 15 0
BBX 14 22 0 0
BITMAP
07F0
0FFC
0FFC
3C1C
3C1C
383C
7070
7070
71E0
73FC
73FC
77FC
77FC
7E1C
7C1C
7C1C
781C
FC1C
FC1C
CFFC
07FC
07FC
ENDCHAR
STARTCHAR 20B4
ENCODING 8372
SWIDTH 560 0
DWIDTH 14 0
BBX 12 22 0 0
BITMAP
0F80
3FC0
3FC0
79E0
79E0
0060
FFF0
FFF0
FFF0
0780
0780
0E00
0E00
FFF0
FFF0
FFF0
7000
79E0
79E0
3FC0
0F80
0F80
ENDCHAR
STARTCHAR 20B8
ENCODING 8376
SWIDTH 480 0
DWIDTH 12 0
BBX 10 22 1 0
BITMAP
FFC0
FFC0
FFC0
0000
0000
0000
FFC0
FFC0
FFC0
0C00
0C00
0C00
0C00
0C00
0C00
0C00
0C00
0C00
0C00
0C00
0C00
0C00
ENDCHAR
STARTCHAR 20B9
ENCODING 8377
SWIDTH 600 0
DWIDTH 15 0
BBX 13 22 1 0
BITMAP
FFF8
FFF8
FFF8
0060
0060
0060
FFF8
FFF8
FFF8
03C0
03C0
0780
0780
0F00
0780
0780
03C0
00E0
00E0
0078
0038
0038
ENDCHAR
STARTCHAR 20BA
ENCODING 8378
SWIDTH 600 0
DWIDTH 15 0
BBX 13 22 1 0
BITMAP
7000
70C0
70C0
77C0
77C0
7F00
F800
F800
F0C0
77C0
77C0
7F00
7F00
F838
F038
F038
7060
70E0
70E0
7FC0
7F80
7F80
ENDCHAR
STARTCHAR 20BC
ENCODING 8380
SWIDTH 600 0
DWIDTH 15 0
BBX 13 22 1 0
BITMAP
0700
0700
0700
0700
0700
0700
0F80
0F80
1FC0
7FE0
7FE0
7760
7760
E738
E738
E738
E738
E738
E738
E738
E738
E038
ENDCHAR
STARTCHAR 20BD
ENCODING 8381
SWIDTH 600 0
DWIDTH 15 0
BBX 13 22 1 0
BITMAP
1FC0
1FE0
1FE0
1878
1878
1838
1838
1838
1838
1838
1878
FFE0
FFE0
FFC0
1800
1800
1800
FFC0
FFC0
FFC0
1800
1800
ENDCHAR
STARTCHAR 20BE
ENCODING 8382
SWIDTH 640 0
DWIDTH 16 0
BBX 14 22 1 0
BITMAP
0480
1FE0
1FE0
7FF8
7FF8
F4BC
E49C
E49C
E480
E480
E480
E000
E000
E000
F000
F000
7800
1C00
1C00
FF00
FF00
FF00
ENDCHAR
STARTCHAR 2113
ENCODING 8467
SWIDTH 560 0
DWIDTH 14 0
BBX 11 22 1 0
BITMAP
03C0
0FE0
0FE0
0C60
0C60
1860
18C0
18C0
70C0
7380
7380
7380
7380
7700
1FE0
1FE0
1FE0
0C00
0C00
F800
F800
F800
ENDCHAR
STARTCHAR 2116
ENCODING 8470
SWIDTH 1000 0
DWIDTH 25 0
BBX 22 22 1 0
BITMAP
E038F0
F039F8
F039F8
F03B0C
F03B0C
F83B0C
EC3B0C
EC3B0C
EC3B0C
E739F8
E739F8
E738F0
E738F0
E3B800
E3BBFC
E3BBFC
E0FBFC
E07800
E07800
E07800
E03800
E03800
ENDCHAR
STARTCHAR 2117
ENCODING 8471
SWIDTH 720 0
DWIDTH 18 0
BBX 16 22 1 0
BITMAP
0FF8
1FFC
1FFC
781E
781E
7006
E7C3
E7C3
E423
E423
E423
E7C3
E7C3
E403
E403
E403
7006
781E
781E
1FFC
0FF8
0FF8
ENDCHAR
STARTCHAR 2122
ENCODING 8482
SWIDTH 640 0
DWIDTH 16 0
BBX 14 9 1 13
BITMAP
FC84
10DC
10DC
10A4
10A4
1084
1084
1084
1084
ENDCHAR
STARTCHAR 2202
ENCODING 8706
SWIDTH 640 0
DWIDTH 16 0
BBX 14 22 1 0
BITMAP
1F00
1F80
1F80
03C0
03C0
00E0
0078
0078
0038
1FFC
1FFC
7FFC
7FFC
F03C
E01C
E01C
E01C
F03C
F03C
7FF8
1FE0
1FE0
ENDCHAR
STARTCHAR 220F
ENCODING 8719
SWIDTH 600 0
DWIDTH 15 0
BBX 13 30 1 -5
BITMAP
FFF8
FFF8
FFF8
E038
E038
E038
E038
E038
E038
E038
E038
E038
E038
E038
E038
E038
E038
E038
E038
E038
E038
E038
E038
E038
E038
E038
E038
E038
E038
E038
ENDCHAR
STARTCHAR 2211
ENCODING 8721
SWIDTH 600 0
DWIDTH 15 0
BBX 13 30 1 -5
BITMAP
FFF8
FFF8
FFF8
7800
1C00
1C00
1C00
1C00
0F00
0780
0780
0780
03C0
03C0
03C0
03C0
03C0
0780
0780
0780
0F00
0F00
1C00
1C00
1C00
7800
7800
FFF8
FFF8
FFF8
ENDCHAR
STARTCHAR 2212
ENCODING 8722
SWIDTH 480 0
DWIDTH 12 0
BBX 10 3 1 8
BITMAP
FFC0
FFC0
FFC0
ENDCHAR
STARTCHAR 221A
ENCODING 8730
SWIDTH 600 0
DWIDTH 15 0
BBX 13 22 1 0
BITMAP
0038
0038
0038
0060
0060
0060
00C0
00C0
00C0
0380
0380
0380
0380
E700
E700
E700
7C00
7C00
7C00
1800
1800
1800
ENDCHAR
STARTCHAR 221E
ENCODING 8734
SWIDTH 800 0
DWIDTH 20 0
BBX 17 12 1 2
BITMAP
1C1E00
7F3F00
7F3F00
F3E380
F3E380
E0C180
E0C180
E0C180
F3E380
7F3F00
7F3F00
1C1E00
ENDCHAR
STARTCHAR 222B
ENCODING 8747
SWIDTH 480 0
DWIDTH 12 0
BBX 10 30 1 -5
BITMAP
03C0
07C0
07C0
0F00
0C00
0C00
0C00
0C00
0C00
0C00
0C00
0C00
0C00
0C00
0C00
0C00
0C00
0C00
0C00
0C00
0C00
0C00
0C00
0C00
0C00
1C00
1C00
F800
F000
F000
ENDCHAR
STARTCHAR 2248
ENCODING 8776
SWIDTH 600 0
DWIDTH 15 0
BBX 13 11 1 5
BITMAP
1C38
1C38
7760
E3C0
E3C0
0000
0000
1C38
7760
7760
E3C0
ENDCHAR
STARTCHAR 2260
ENCODING 8800
SWIDTH 560 0
DWIDTH 14 0
BBX 14 17 0 2
BITMAP
001C
001C
003C
0070
0070
7FF0
7FF0
7FF0
0780
0780
0E00
7FF0
7FF0
7FF0
F000
F000
C000
ENDCHAR
STARTCHAR 2264
ENCODING 8804
SWIDTH 480 0
DWIDTH 12 0
BBX 10 17 1 0
BITMAP
03C0
0FC0
0FC0
7F00
F800
F800
F800
F800
7F00
0FC0
0FC0
03C0
03C0
0000
FFC0
FFC0
FFC0
ENDCHAR
STARTCHAR 2265
ENCODING 8805
SWIDTH 480 0
DWIDTH 12 0
BBX 10 17 1 0
BITMAP
F000
FC00
FC00
1F80
07C0
07C0
07C0
07C0
1F80
FC00
FC00
F000
F000
0000
FFC0
FFC0
FFC0
ENDCHAR
STARTCHAR 25CA
ENCODING 9674
SWIDTH 640 0
DWIDTH 16 0
BBX 14 22 1 0
BITMAP
0300
0780
0780
0FC0
0FC0
1CE0
7878
7878
F03C
E01C
E01C
E01C
E01C
F03C
7878
7878
1CE0
0FC0
0FC0
0780
0300
0300
ENDCHAR
ENDFONT
